<svg version="1.1" xmlns="http://www.w3.org/2000/svg" viewBox="0 0 936.4236196939138 784.2122654114087" width="936.4236196939138" height="784.2122654114087">
  <!-- svg-source:excalidraw -->
  
  <defs>
    <style class="style-fonts">
      @font-face {
        font-family: "Virgil";
        src: url("https://excalidraw.com/Virgil.woff2");
      }
      @font-face {
        font-family: "Cascadia";
        src: url("https://excalidraw.com/Cascadia.woff2");
      }
      @font-face {
        font-family: "Assistant";
        src: url("https://excalidraw.com/Assistant-Regular.woff2");
      }
    </style>
    
  </defs>
  <rect x="0" y="0" width="936.4236196939138" height="784.2122654114087" fill="#fffff8"></rect><g transform="translate(10 128.38175133888376) rotate(0 70.87994384765625 12.5)"><text x="70.87994384765625" y="0" font-family="Virgil, Segoe UI Emoji" font-size="20px" fill="#000000" text-anchor="middle" style="white-space: pre;" direction="ltr" dominant-baseline="text-before-edge">Personal Email</text></g><g stroke-linecap="round" transform="translate(49.08981166880221 72.81762386652508) rotate(0 31.243501319478924 20.731669099841127)"><path d="M0 0 C0 0, 0 0, 0 0 M0 0 C0 0, 0 0, 0 0 M0.13 12.04 C3.79 7.83, 7.46 3.62, 10.63 -0.03 M0.13 12.04 C2.48 9.34, 4.83 6.64, 10.63 -0.03 M0.27 24.08 C4.85 18.81, 9.44 13.53, 21.26 -0.07 M0.27 24.08 C5.73 17.79, 11.2 11.51, 21.26 -0.07 M-0.26 36.88 C10.36 24.67, 20.97 12.46, 31.89 -0.1 M-0.26 36.88 C9.23 25.96, 18.72 15.04, 31.89 -0.1 M5.78 42.13 C18.62 27.35, 31.47 12.58, 42.52 -0.14 M5.78 42.13 C13.42 33.34, 21.06 24.55, 42.52 -0.14 M16.41 42.09 C26.33 30.68, 36.25 19.27, 53.15 -0.17 M16.41 42.09 C24.74 32.51, 33.07 22.92, 53.15 -0.17 M27.04 42.06 C35.51 32.32, 43.98 22.57, 63.12 0.55 M27.04 42.06 C39.9 27.27, 52.76 12.48, 63.12 0.55 M37.67 42.02 C44.29 34.4, 50.92 26.78, 63.26 12.59 M37.67 42.02 C45.51 33.01, 53.34 24, 63.26 12.59 M48.3 41.99 C52.09 37.63, 55.88 33.26, 63.39 24.63 M48.3 41.99 C53.11 36.45, 57.92 30.92, 63.39 24.63 M58.93 41.95 C60.25 40.43, 61.58 38.91, 62.87 37.43 M58.93 41.95 C60.1 40.6, 61.28 39.26, 62.87 37.43 M-0.15 41.33 C-0.15 41.33, -0.15 41.33, -0.15 41.33 M-0.15 41.33 C-0.15 41.33, -0.15 41.33, -0.15 41.33 M11.89 41.2 C7.18 37.11, 2.48 33.02, -0.19 30.7 M11.89 41.2 C7.75 37.6, 3.62 34.01, -0.19 30.7 M24.68 41.72 C15.19 33.47, 5.69 25.21, -0.22 20.07 M24.68 41.72 C17.87 35.8, 11.06 29.88, -0.22 20.07 M36.72 41.59 C27.28 33.38, 17.84 25.17, -0.26 9.44 M36.72 41.59 C27.2 33.31, 17.68 25.03, -0.26 9.44 M48.77 41.45 C32.25 27.1, 15.74 12.75, 0.46 -0.53 M48.77 41.45 C33.06 27.8, 17.35 14.14, 0.46 -0.53 M60.81 41.32 C50.29 32.18, 39.78 23.04, 12.5 -0.67 M60.81 41.32 C49.36 31.37, 37.91 21.42, 12.5 -0.67 M62.28 32 C49.89 21.23, 37.5 10.46, 24.55 -0.8 M62.28 32 C50.55 21.8, 38.82 11.61, 24.55 -0.8 M62.25 21.37 C54.53 14.67, 46.81 7.96, 37.34 -0.28 M62.25 21.37 C53.5 13.77, 44.75 6.16, 37.34 -0.28 M62.21 10.74 C59.51 8.4, 56.81 6.05, 49.38 -0.41 M62.21 10.74 C58.66 7.66, 55.11 4.57, 49.38 -0.41 M62.18 0.11 C62.02 -0.03, 61.86 -0.17, 61.42 -0.54 M62.18 0.11 C61.99 -0.05, 61.8 -0.21, 61.42 -0.54" stroke="#ced4da" stroke-width="1" fill="none"></path><path d="M0 0 C21.89 0, 43.79 0, 62.49 0 M0 0 C17.81 0, 35.63 0, 62.49 0 M62.49 0 C62.49 9.96, 62.49 19.93, 62.49 41.46 M62.49 0 C62.49 12.17, 62.49 24.34, 62.49 41.46 M62.49 41.46 C49.97 41.46, 37.46 41.46, 0 41.46 M62.49 41.46 C40.87 41.46, 19.25 41.46, 0 41.46 M0 41.46 C0 29.71, 0 17.95, 0 0 M0 41.46 C0 28.97, 0 16.47, 0 0" stroke="#000000" stroke-width="2" fill="none"></path></g><g stroke-linecap="round"><g transform="translate(49.99274799363047 76.66016781915846) rotate(0 15.366143511948167 11.96293434694698)"><path d="M0 0 C9.08 7.07, 18.15 14.13, 30.73 23.93 M0 0 C7.31 5.69, 14.61 11.38, 30.73 23.93" stroke="#000000" stroke-width="2" fill="none"></path></g></g><mask></mask><g stroke-linecap="round"><g transform="translate(81.86040020975906 101.72929725219342) rotate(0 14.651538881000022 -14.616124377920102)"><path d="M0 0 C7.39 -7.37, 14.78 -14.75, 29.3 -29.23 M0 0 C8.15 -8.13, 16.31 -16.27, 29.3 -29.23" stroke="#000000" stroke-width="2" fill="none"></path></g></g><mask></mask><g transform="translate(367.64674377441395 128.38175133888382) rotate(0 60.01994323730469 12.5)"><text x="60.01994323730469" y="0" font-family="Virgil, Segoe UI Emoji" font-size="20px" fill="#000000" text-anchor="middle" style="white-space: pre;" direction="ltr" dominant-baseline="text-before-edge">Posts Inbox</text></g><g stroke-linecap="round" transform="translate(395.8765548328646 72.81762386652508) rotate(0 31.243501319478924 20.731669099841127)"><path d="M0 0 C0 0, 0 0, 0 0 M0 0 C0 0, 0 0, 0 0 M0.13 12.04 C3.98 7.61, 7.83 3.18, 10.63 -0.03 M0.13 12.04 C2.83 8.94, 5.52 5.84, 10.63 -0.03 M0.27 24.08 C7.5 15.76, 14.73 7.45, 21.26 -0.07 M0.27 24.08 C4.74 18.94, 9.21 13.79, 21.26 -0.07 M-0.26 36.88 C10.16 24.89, 20.58 12.91, 31.89 -0.1 M-0.26 36.88 C11.96 22.82, 24.18 8.77, 31.89 -0.1 M5.78 42.13 C19.4 26.46, 33.01 10.8, 42.52 -0.14 M5.78 42.13 C14.98 31.54, 24.19 20.95, 42.52 -0.14 M16.41 42.09 C25.65 31.47, 34.88 20.84, 53.15 -0.17 M16.41 42.09 C27.1 29.8, 37.78 17.5, 53.15 -0.17 M27.04 42.06 C36.39 31.3, 45.75 20.54, 63.12 0.55 M27.04 42.06 C40.36 26.73, 53.68 11.41, 63.12 0.55 M37.67 42.02 C46.2 32.21, 54.72 22.4, 63.26 12.59 M37.67 42.02 C44.92 33.68, 52.17 25.35, 63.26 12.59 M48.3 41.99 C52.55 37.1, 56.8 32.21, 63.39 24.63 M48.3 41.99 C54.17 35.24, 60.04 28.49, 63.39 24.63 M58.93 41.95 C60.12 40.58, 61.31 39.21, 62.87 37.43 M58.93 41.95 C60.22 40.47, 61.51 38.98, 62.87 37.43 M-0.15 41.33 C-0.15 41.33, -0.15 41.33, -0.15 41.33 M-0.15 41.33 C-0.15 41.33, -0.15 41.33, -0.15 41.33 M11.89 41.2 C7.77 37.62, 3.65 34.04, -0.19 30.7 M11.89 41.2 C7.4 37.3, 2.92 33.4, -0.19 30.7 M24.68 41.72 C19.58 37.29, 14.48 32.85, -0.22 20.07 M24.68 41.72 C16.14 34.29, 7.59 26.86, -0.22 20.07 M36.72 41.59 C22.74 29.43, 8.75 17.27, -0.26 9.44 M36.72 41.59 C27.92 33.93, 19.11 26.28, -0.26 9.44 M48.77 41.45 C32.32 27.16, 15.88 12.87, 0.46 -0.53 M48.77 41.45 C31.85 26.75, 14.94 12.05, 0.46 -0.53 M60.81 41.32 C41.85 24.84, 22.89 8.36, 12.5 -0.67 M60.81 41.32 C44.97 27.56, 29.14 13.79, 12.5 -0.67 M62.28 32 C51.75 22.85, 41.21 13.69, 24.55 -0.8 M62.28 32 C54.63 25.35, 46.98 18.7, 24.55 -0.8 M62.25 21.37 C54.51 14.65, 46.78 7.92, 37.34 -0.28 M62.25 21.37 C54.34 14.5, 46.44 7.63, 37.34 -0.28 M62.21 10.74 C57.28 6.45, 52.35 2.17, 49.38 -0.41 M62.21 10.74 C57.68 6.8, 53.14 2.86, 49.38 -0.41 M62.18 0.11 C61.95 -0.09, 61.71 -0.29, 61.42 -0.54 M62.18 0.11 C61.98 -0.06, 61.79 -0.23, 61.42 -0.54" stroke="#ced4da" stroke-width="1" fill="none"></path><path d="M0 0 C19.04 0, 38.09 0, 62.49 0 M0 0 C24.33 0, 48.67 0, 62.49 0 M62.49 0 C62.49 15.19, 62.49 30.38, 62.49 41.46 M62.49 0 C62.49 15.76, 62.49 31.52, 62.49 41.46 M62.49 41.46 C44.57 41.46, 26.66 41.46, 0 41.46 M62.49 41.46 C41.5 41.46, 20.51 41.46, 0 41.46 M0 41.46 C0 31.37, 0 21.27, 0 0 M0 41.46 C0 33.01, 0 24.56, 0 0" stroke="#000000" stroke-width="2" fill="none"></path></g><g stroke-linecap="round"><g transform="translate(396.77949115769286 76.66016781915846) rotate(0 15.366143511948167 11.96293434694698)"><path d="M0 0 C7.53 5.87, 15.07 11.73, 30.73 23.93 M0 0 C11.33 8.82, 22.67 17.65, 30.73 23.93" stroke="#000000" stroke-width="2" fill="none"></path></g></g><mask></mask><g stroke-linecap="round"><g transform="translate(428.64714337382145 101.72929725219342) rotate(0 14.651538881000022 -14.616124377920102)"><path d="M0 0 C8.01 -7.99, 16.03 -15.99, 29.3 -29.23 M0 0 C11.02 -10.99, 22.04 -21.99, 29.3 -29.23" stroke="#000000" stroke-width="2" fill="none"></path></g></g><mask></mask><g stroke-linecap="round" transform="translate(739.5860339146637 39.33879075840474) rotate(0 21.27328675368335 7.59046851305132)"><path d="M3.8 0 C14.93 -0.1, 24.09 -2.64, 38.75 0 C37.86 -2.47, 42.09 -0.56, 42.55 3.8 C43.68 7.48, 42.97 7.62, 42.55 11.39 C45.03 14.51, 43.93 14.8, 38.75 15.18 C30.93 13.25, 19.7 12.53, 3.8 15.18 C2.41 12.8, -0.54 16.97, 0 11.39 C0.34 10.56, -0.4 6.5, 0 3.8 C-0.76 4.18, 3.71 1.07, 3.8 0" stroke="none" stroke-width="0" fill="#ced4da"></path><path d="M3.8 0 C13.21 0.07, 21.77 1.51, 38.75 0 M3.8 0 C10.5 -0.06, 18.37 -0.15, 38.75 0 M38.75 0 C39.52 -1.55, 43.96 2.25, 42.55 3.8 M38.75 0 C40.83 -1.79, 43.08 1.49, 42.55 3.8 M42.55 3.8 C43.03 5.4, 41.97 8.06, 42.55 11.39 M42.55 3.8 C42.5 5.51, 42.73 6.63, 42.55 11.39 M42.55 11.39 C42.52 12.29, 42.63 14.55, 38.75 15.18 M42.55 11.39 C41.3 11.79, 43.08 14.55, 38.75 15.18 M38.75 15.18 C31.96 16.22, 24.58 13.75, 3.8 15.18 M38.75 15.18 C30.08 14.33, 22.13 14.64, 3.8 15.18 M3.8 15.18 C-0.39 14.46, -1.37 14.07, 0 11.39 M3.8 15.18 C2.55 13.33, 1.57 13.49, 0 11.39 M0 11.39 C0.66 8.1, 0.73 5.58, 0 3.8 M0 11.39 C0.11 8.09, 0.2 5.69, 0 3.8 M0 3.8 C0.02 2.5, -0.61 -0.93, 3.8 0 M0 3.8 C-1.06 3.26, 1.91 -0.77, 3.8 0" stroke="#000000" stroke-width="1" fill="none"></path></g><g stroke-linecap="round" transform="translate(751.3712350270322 22.160362018342767) rotate(0 14.381940340518327 13.882567412028095)"><path d="M16.29 0.52 C19.23 0.65, 22.6 2.32, 24.74 4.42 C26.89 6.52, 28.92 10.12, 29.16 13.12 C29.4 16.11, 28.04 19.98, 26.16 22.37 C24.28 24.76, 21.02 26.79, 17.86 27.44 C14.71 28.09, 10.08 27.63, 7.21 26.28 C4.35 24.93, 1.7 22.12, 0.69 19.34 C-0.31 16.56, 0.12 12.55, 1.18 9.6 C2.25 6.65, 4.5 3.24, 7.07 1.64 C9.64 0.04, 14.84 0.13, 16.6 -0.03 C18.36 -0.18, 17.68 0.46, 17.65 0.7 M14.16 0.48 C16.93 0.06, 20.64 0.59, 22.94 2.36 C25.24 4.13, 27.37 8.04, 27.98 11.11 C28.59 14.17, 27.9 18.22, 26.6 20.77 C25.29 23.32, 22.86 25.27, 20.15 26.42 C17.43 27.57, 13.28 28.68, 10.3 27.69 C7.31 26.7, 3.85 23.09, 2.25 20.45 C0.65 17.82, 0.15 14.72, 0.69 11.87 C1.23 9.02, 3.29 5.23, 5.47 3.35 C7.66 1.46, 12.41 1.02, 13.79 0.55 C15.18 0.08, 13.79 0.43, 13.79 0.54" stroke="none" stroke-width="0" fill="#ced4da"></path><path d="M16.23 -0.2 C19.2 0.11, 22.99 2.37, 25.04 4.59 C27.1 6.81, 28.54 10.08, 28.57 13.14 C28.6 16.19, 27.07 20.55, 25.21 22.92 C23.36 25.3, 20.46 26.86, 17.43 27.4 C14.41 27.94, 9.81 27.6, 7.08 26.17 C4.34 24.74, 2.02 21.54, 1.03 18.82 C0.03 16.09, 0.09 12.66, 1.11 9.8 C2.14 6.95, 4.58 3.26, 7.2 1.67 C9.82 0.09, 15.13 0.51, 16.82 0.29 C18.51 0.07, 17.35 0.13, 17.33 0.36 M16.23 -0.49 C19.16 -0.27, 23.46 2.08, 25.48 4.25 C27.5 6.43, 28.19 9.59, 28.34 12.57 C28.5 15.54, 28.29 19.73, 26.39 22.11 C24.49 24.5, 19.91 26.12, 16.93 26.86 C13.95 27.6, 11.1 27.76, 8.5 26.58 C5.9 25.39, 2.78 22.62, 1.36 19.74 C-0.06 16.86, -0.78 12.26, 0 9.28 C0.77 6.29, 3.32 3.42, 5.99 1.81 C8.66 0.2, 14.31 -0.11, 16.04 -0.39 C17.76 -0.67, 16.43 -0.15, 16.33 0.11" stroke="#000000" stroke-width="1" fill="none"></path></g><g stroke-linecap="round" transform="translate(732.5948129157999 34.74455981629626) rotate(0 9.987458569804403 9.687834812710236)"><path d="M11.36 -0.03 C13.46 0.07, 16.51 1.54, 18.02 3.15 C19.53 4.75, 20.4 7.47, 20.42 9.59 C20.45 11.71, 19.67 14.24, 18.16 15.87 C16.64 17.49, 13.59 18.94, 11.35 19.36 C9.1 19.77, 6.38 19.41, 4.67 18.36 C2.96 17.31, 1.72 15.11, 1.1 13.04 C0.47 10.97, 0.29 7.93, 0.9 5.94 C1.5 3.95, 2.82 2.02, 4.73 1.09 C6.64 0.15, 11.15 0.47, 12.35 0.32 C13.55 0.17, 12.04 0.01, 11.93 0.2 M11 -0.61 C12.93 -0.53, 15.52 1.47, 16.95 3.17 C18.39 4.88, 19.35 7.6, 19.59 9.62 C19.83 11.64, 19.56 13.6, 18.39 15.31 C17.21 17.01, 14.71 19.47, 12.55 19.85 C10.38 20.23, 7.29 18.68, 5.4 17.6 C3.51 16.51, 1.93 15.21, 1.21 13.36 C0.49 11.52, 0.52 8.43, 1.07 6.54 C1.61 4.64, 2.78 3.01, 4.46 1.98 C6.14 0.95, 10.04 0.68, 11.15 0.37 C12.25 0.06, 11.14 -0.05, 11.09 0.11" stroke="none" stroke-width="0" fill="#ced4da"></path><path d="M7.61 0.11 C9.58 -0.47, 12.48 -0.41, 14.34 0.62 C16.21 1.65, 17.89 4.3, 18.8 6.27 C19.7 8.24, 20.41 10.49, 19.78 12.44 C19.15 14.38, 16.85 16.81, 15.02 17.94 C13.2 19.06, 10.8 19.41, 8.8 19.2 C6.8 18.99, 4.44 18.23, 3.02 16.67 C1.61 15.11, 0.53 11.97, 0.29 9.84 C0.06 7.7, 0.41 5.52, 1.6 3.86 C2.8 2.2, 6.4 0.45, 7.46 -0.13 C8.53 -0.71, 7.84 0.1, 8 0.36 M9.13 -0.15 C11.06 -0.55, 13.07 -0.32, 14.89 0.79 C16.72 1.9, 19.45 4.51, 20.08 6.51 C20.71 8.5, 19.44 10.74, 18.66 12.76 C17.88 14.78, 17.15 17.47, 15.4 18.62 C13.65 19.78, 10.48 20.26, 8.15 19.69 C5.82 19.12, 2.9 16.98, 1.44 15.19 C-0.03 13.4, -0.8 11.04, -0.64 8.96 C-0.49 6.87, 0.81 4.21, 2.37 2.68 C3.94 1.16, 7.81 0.26, 8.75 -0.19 C9.69 -0.63, 8.11 -0.2, 8.02 0.01" stroke="#000000" stroke-width="1" fill="none"></path></g><g stroke-linecap="round" transform="translate(743.3812681711864 26.954342131848307) rotate(0 6.856006175148764 6.163030203613118)"><path d="M8.56 -0.17 C10.08 0.01, 11.69 1.15, 12.63 2.22 C13.57 3.29, 14.37 4.89, 14.21 6.25 C14.04 7.6, 12.72 9.3, 11.62 10.34 C10.51 11.38, 8.88 12.33, 7.58 12.51 C6.27 12.7, 4.96 12.25, 3.81 11.45 C2.66 10.65, 1.28 8.99, 0.68 7.7 C0.09 6.42, -0.32 4.86, 0.22 3.73 C0.77 2.6, 2.62 1.54, 3.96 0.91 C5.31 0.29, 7.5 0, 8.28 -0.05 C9.06 -0.09, 8.6 0.53, 8.65 0.67 M7.43 -0.02 C8.84 0.25, 10.52 1.37, 11.66 2.32 C12.81 3.27, 14.11 4.26, 14.29 5.66 C14.47 7.06, 13.73 9.73, 12.74 10.73 C11.74 11.72, 9.77 11.45, 8.32 11.61 C6.87 11.77, 5.25 12.22, 4.03 11.67 C2.81 11.11, 1.66 9.44, 1 8.28 C0.34 7.11, -0.26 5.88, 0.08 4.69 C0.41 3.5, 1.77 1.93, 3.03 1.13 C4.28 0.33, 6.87 0.01, 7.6 -0.11 C8.33 -0.23, 7.47 0.33, 7.43 0.44" stroke="none" stroke-width="0" fill="#ced4da"></path><path d="M5.44 -0.34 C6.76 -0.56, 8.52 0.45, 9.87 1.16 C11.21 1.88, 13.02 2.73, 13.53 3.93 C14.04 5.13, 13.45 7.12, 12.92 8.36 C12.39 9.6, 11.51 10.67, 10.36 11.38 C9.22 12.09, 7.46 12.88, 6.05 12.62 C4.64 12.36, 2.99 10.87, 1.91 9.81 C0.83 8.74, -0.28 7.53, -0.42 6.21 C-0.55 4.89, 0.09 2.92, 1.08 1.9 C2.08 0.87, 4.72 0.32, 5.57 0.09 C6.42 -0.15, 6.18 0.39, 6.19 0.49 M5.07 -0.57 C6.43 -0.89, 9.44 -0.11, 10.7 0.53 C11.96 1.18, 12.08 1.99, 12.65 3.32 C13.22 4.64, 14.43 7.04, 14.11 8.48 C13.78 9.91, 12.2 11.38, 10.71 11.94 C9.23 12.49, 6.8 12.15, 5.19 11.81 C3.59 11.47, 1.98 10.88, 1.08 9.88 C0.18 8.89, -0.29 7.14, -0.2 5.83 C-0.12 4.53, 0.77 3.06, 1.61 2.06 C2.45 1.06, 4.29 0.15, 4.85 -0.14 C5.41 -0.44, 4.79 0.26, 4.99 0.3" stroke="#000000" stroke-width="1" fill="none"></path></g><g stroke-linecap="round" transform="translate(770.5471554810578 38.53979407282151) rotate(0 8.489339784333765 7.989966855843505)"><path d="M8.21 -0.03 C9.93 -0.23, 12.51 0.41, 13.86 1.43 C15.21 2.45, 15.95 4.36, 16.28 6.07 C16.61 7.77, 16.45 10.11, 15.82 11.64 C15.2 13.17, 14.09 14.64, 12.55 15.24 C11.01 15.84, 8.47 15.72, 6.59 15.24 C4.72 14.75, 2.32 13.64, 1.3 12.34 C0.28 11.03, 0.3 9.13, 0.47 7.43 C0.64 5.72, 1.08 3.3, 2.33 2.12 C3.57 0.94, 6.92 0.65, 7.96 0.33 C8.99 0.01, 8.47 0.18, 8.54 0.21 M6.11 0.41 C7.95 -0.12, 11.06 -0.42, 12.84 0.42 C14.63 1.26, 16.17 3.92, 16.83 5.46 C17.49 7, 17.33 8.08, 16.81 9.64 C16.29 11.19, 15.16 13.73, 13.71 14.77 C12.25 15.8, 10.04 15.97, 8.1 15.85 C6.15 15.73, 3.44 15.23, 2.04 14.05 C0.64 12.87, -0.18 10.59, -0.3 8.75 C-0.42 6.92, 0.26 4.44, 1.31 3.06 C2.36 1.68, 5.21 0.93, 5.99 0.46 C6.78 0, 5.81 0.23, 6.03 0.27" stroke="none" stroke-width="0" fill="#ced4da"></path><path d="M7.52 0.37 C9.31 0.22, 12.27 0.47, 13.74 1.44 C15.21 2.41, 15.94 4.53, 16.34 6.19 C16.74 7.85, 16.84 9.82, 16.16 11.4 C15.48 12.99, 13.9 15.02, 12.28 15.68 C10.66 16.33, 8.29 15.86, 6.42 15.32 C4.54 14.79, 2.17 13.88, 1.03 12.46 C-0.12 11.04, -0.68 8.51, -0.45 6.81 C-0.22 5.11, 0.93 3.32, 2.4 2.24 C3.87 1.16, 7.45 0.67, 8.39 0.32 C9.34 -0.03, 8.19 0.02, 8.08 0.15 M8.4 -0.18 C10.09 -0.39, 11.33 -0.18, 12.83 0.91 C14.34 2, 16.85 4.52, 17.45 6.36 C18.05 8.2, 17.43 10.54, 16.41 11.95 C15.4 13.36, 13.16 14.25, 11.35 14.81 C9.54 15.37, 7.25 15.78, 5.58 15.32 C3.9 14.85, 2.19 13.41, 1.29 12.02 C0.39 10.62, 0.06 8.62, 0.17 6.95 C0.27 5.29, 0.72 3.17, 1.91 2.02 C3.1 0.88, 6.25 0.49, 7.3 0.08 C8.36 -0.32, 8.07 -0.52, 8.25 -0.42" stroke="#000000" stroke-width="1" fill="none"></path></g><g stroke-linecap="round" transform="translate(735.1347027472201 37.19965134102955) rotate(0 8.796257899247848 8.560643848375094)"><path d="M8.04 0.07 C9.66 -0.26, 11.57 0.41, 13.02 1.43 C14.48 2.44, 16.06 4.44, 16.8 6.16 C17.54 7.88, 18.03 10.17, 17.44 11.75 C16.85 13.33, 15.03 14.82, 13.25 15.64 C11.47 16.47, 8.58 16.98, 6.76 16.71 C4.93 16.43, 3.47 15.43, 2.31 13.99 C1.16 12.55, -0.14 9.87, -0.16 8.07 C-0.18 6.27, 0.8 4.5, 2.2 3.17 C3.61 1.84, 7.18 0.63, 8.27 0.08 C9.36 -0.47, 8.85 -0.21, 8.73 -0.13 M9.1 -0.41 C11.04 -0.49, 13.38 1.4, 14.8 2.5 C16.21 3.6, 17.2 4.49, 17.58 6.2 C17.96 7.9, 17.9 11.02, 17.07 12.73 C16.24 14.43, 14.51 15.67, 12.62 16.43 C10.73 17.18, 7.69 17.76, 5.75 17.24 C3.82 16.73, 2.01 15.02, 1.01 13.34 C0.01 11.66, -0.5 8.98, -0.26 7.16 C-0.02 5.34, 1.05 3.63, 2.43 2.42 C3.81 1.21, 6.9 0.32, 8.02 -0.11 C9.14 -0.54, 9.12 -0.33, 9.16 -0.15" stroke="none" stroke-width="0" fill="#ced4da"></path><path d="M7.12 0.11 C8.84 -0.42, 10.81 0.23, 12.45 1.07 C14.09 1.92, 16.11 3.43, 16.96 5.16 C17.81 6.9, 18.07 9.79, 17.54 11.5 C17.02 13.21, 15.54 14.5, 13.82 15.43 C12.11 16.35, 9.25 17.3, 7.25 17.06 C5.25 16.83, 3.07 15.38, 1.83 14.03 C0.59 12.68, -0.23 10.69, -0.19 8.96 C-0.15 7.24, 0.89 5.15, 2.06 3.68 C3.24 2.21, 6.02 0.66, 6.84 0.15 C7.66 -0.36, 6.94 0.52, 6.99 0.62 M6.2 -0.34 C7.95 -0.75, 11.68 0.28, 13.5 1.29 C15.32 2.3, 16.63 4.16, 17.14 5.71 C17.65 7.26, 17.25 8.98, 16.55 10.58 C15.86 12.19, 14.47 14.35, 12.97 15.35 C11.47 16.34, 9.3 16.76, 7.55 16.56 C5.81 16.36, 3.88 15.44, 2.52 14.15 C1.16 12.85, -0.4 10.55, -0.61 8.77 C-0.82 7, -0.07 5.02, 1.24 3.49 C2.54 1.97, 6.19 0.17, 7.2 -0.37 C8.22 -0.91, 7.28 0.1, 7.33 0.26" stroke="#ced4da" stroke-width="1" fill="none"></path></g><g stroke-linecap="round" transform="translate(758.8531838684052 30.60245791659304) rotate(0 10.602632289271924 11.388012458847612)"><path d="M9.87 0.14 C11.88 -0.03, 14.88 1.22, 16.82 2.71 C18.75 4.2, 20.89 6.81, 21.46 9.08 C22.04 11.35, 21.44 14.21, 20.25 16.32 C19.05 18.43, 16.38 20.73, 14.29 21.74 C12.2 22.74, 9.86 23.1, 7.71 22.34 C5.56 21.58, 2.69 19.21, 1.42 17.16 C0.14 15.12, -0.33 12.44, 0.07 10.07 C0.48 7.69, 2.01 4.66, 3.84 2.93 C5.68 1.2, 9.93 0.19, 11.08 -0.31 C12.23 -0.81, 10.81 -0.29, 10.75 -0.09 M11.83 0.69 C13.92 0.66, 16.45 0.94, 18.09 2.53 C19.73 4.12, 21.34 7.73, 21.66 10.24 C21.97 12.75, 21.38 15.5, 19.99 17.61 C18.59 19.71, 15.62 22.11, 13.3 22.86 C10.97 23.61, 8.14 23.19, 6.05 22.09 C3.96 20.99, 1.8 18.46, 0.76 16.27 C-0.28 14.08, -0.71 11.31, -0.2 8.95 C0.31 6.59, 1.8 3.65, 3.81 2.11 C5.83 0.57, 10.71 -0.01, 11.9 -0.3 C13.09 -0.6, 11.04 0.02, 10.95 0.37" stroke="none" stroke-width="0" fill="#ced4da"></path><path d="M12.08 0.29 C14.19 0.56, 17.21 2.07, 18.79 3.99 C20.37 5.91, 21.52 9.4, 21.56 11.8 C21.59 14.2, 20.58 16.58, 18.99 18.39 C17.4 20.19, 14.37 22.2, 12 22.62 C9.63 23.04, 6.71 22.13, 4.78 20.91 C2.85 19.68, 1.07 17.45, 0.43 15.26 C-0.22 13.08, 0.14 10.07, 0.91 7.78 C1.68 5.48, 3.16 2.71, 5.05 1.5 C6.94 0.3, 11 0.77, 12.27 0.56 C13.54 0.34, 12.72 0.02, 12.68 0.22 M10.62 0.4 C12.9 0.28, 15.5 1.41, 17.1 2.71 C18.71 4.01, 19.83 5.98, 20.23 8.2 C20.62 10.42, 20.4 13.84, 19.47 16.02 C18.55 18.2, 16.64 20.29, 14.7 21.29 C12.75 22.3, 10.05 22.69, 7.8 22.05 C5.54 21.42, 2.56 19.44, 1.18 17.47 C-0.19 15.51, -0.87 12.72, -0.45 10.24 C-0.04 7.76, 1.86 4.31, 3.67 2.58 C5.47 0.86, 9.25 0.36, 10.39 -0.11 C11.52 -0.58, 10.58 -0.55, 10.46 -0.24" stroke="#ced4da" stroke-width="1" fill="none"></path></g><g stroke-linecap="round" transform="translate(766.2357574624151 38.613335646264375) rotate(0 10.131404187526527 7.775263678799405)"><path d="M9.68 0.26 C11.89 0.13, 15.26 0.84, 17.05 1.78 C18.83 2.71, 20.12 4.28, 20.4 5.88 C20.68 7.48, 19.77 9.82, 18.72 11.37 C17.68 12.92, 16.15 14.61, 14.12 15.19 C12.1 15.78, 8.72 15.42, 6.59 14.89 C4.47 14.37, 2.39 13.44, 1.37 12.05 C0.34 10.66, 0.02 8.29, 0.43 6.54 C0.85 4.79, 2.24 2.7, 3.86 1.56 C5.48 0.41, 8.93 -0.06, 10.14 -0.33 C11.35 -0.6, 11.02 -0.31, 11.11 -0.06 M8.92 -0.53 C10.94 -0.94, 14.13 0.34, 16.04 1.31 C17.94 2.29, 19.79 3.65, 20.32 5.31 C20.85 6.97, 20.18 9.65, 19.21 11.25 C18.25 12.85, 16.48 14.25, 14.55 14.91 C12.63 15.56, 9.81 15.54, 7.66 15.19 C5.5 14.84, 3 14.09, 1.64 12.79 C0.28 11.49, -0.76 9.13, -0.49 7.37 C-0.22 5.62, 1.76 3.43, 3.25 2.23 C4.74 1.04, 7.49 0.42, 8.44 0.19 C9.39 -0.04, 8.89 0.82, 8.93 0.84" stroke="none" stroke-width="0" fill="#ced4da"></path><path d="M9.69 -0.09 C11.86 -0.22, 14.84 1, 16.61 1.97 C18.38 2.93, 19.94 4.15, 20.29 5.71 C20.65 7.27, 19.85 9.86, 18.73 11.34 C17.6 12.83, 15.52 13.97, 13.56 14.61 C11.59 15.26, 8.88 15.6, 6.93 15.21 C4.98 14.82, 3.06 13.7, 1.87 12.3 C0.69 10.89, -0.36 8.44, -0.19 6.79 C-0.03 5.14, 1.12 3.58, 2.84 2.41 C4.56 1.23, 8.86 0.04, 10.13 -0.27 C11.39 -0.58, 10.45 0.46, 10.45 0.57 M8.47 0.67 C10.24 0.14, 12.64 -0.13, 14.39 0.53 C16.13 1.19, 18.09 3.08, 18.94 4.62 C19.79 6.17, 20.08 8.22, 19.5 9.81 C18.92 11.4, 17.4 13.27, 15.47 14.17 C13.53 15.06, 10.16 15.39, 7.91 15.18 C5.66 14.98, 3.21 14.24, 1.96 12.93 C0.71 11.61, 0.28 9, 0.42 7.3 C0.56 5.6, 1.38 4.01, 2.78 2.74 C4.17 1.46, 7.92 -0.05, 8.79 -0.35 C9.65 -0.66, 8.13 0.58, 7.99 0.9" stroke="#ced4da" stroke-width="1" fill="none"></path></g><g stroke-linecap="round" transform="translate(748.4861656300067 27.61801327220479) rotate(0 8.482105831417584 8.560643848375122)"><path d="M9.54 0.03 C11.38 -0.09, 13.48 0.69, 14.67 1.93 C15.86 3.16, 16.47 5.5, 16.68 7.42 C16.9 9.35, 16.96 11.95, 15.96 13.48 C14.95 15, 12.49 16.03, 10.67 16.57 C8.84 17.11, 6.59 17.41, 5.01 16.71 C3.42 16.01, 1.9 14.12, 1.16 12.37 C0.42 10.62, 0.26 8.04, 0.57 6.19 C0.88 4.35, 1.58 2.37, 3.01 1.3 C4.44 0.23, 8.09 -0.1, 9.17 -0.22 C10.26 -0.33, 9.57 0.36, 9.52 0.61 M10.88 0.34 C12.65 0.7, 14.83 1.77, 15.79 3.31 C16.75 4.84, 16.88 7.64, 16.65 9.53 C16.42 11.42, 15.63 13.42, 14.39 14.64 C13.15 15.86, 11.03 16.64, 9.2 16.87 C7.36 17.09, 4.94 16.98, 3.39 16 C1.84 15.01, 0.23 12.82, -0.12 10.98 C-0.47 9.13, 0.56 6.57, 1.3 4.92 C2.04 3.26, 2.77 1.74, 4.3 1.06 C5.84 0.38, 9.56 1.03, 10.52 0.83 C11.48 0.62, 10.16 -0.3, 10.08 -0.16" stroke="none" stroke-width="0" fill="#ced4da"></path><path d="M9.33 0.4 C11.1 0.35, 13.39 0.79, 14.59 1.99 C15.78 3.19, 16.41 5.76, 16.49 7.58 C16.57 9.4, 16.03 11.4, 15.07 12.93 C14.11 14.47, 12.33 16.14, 10.71 16.77 C9.1 17.4, 7.06 17.46, 5.38 16.73 C3.7 16, 1.55 14.03, 0.63 12.39 C-0.3 10.76, -0.62 8.75, -0.18 6.92 C0.26 5.1, 1.78 2.51, 3.26 1.42 C4.74 0.34, 7.71 0.68, 8.7 0.42 C9.69 0.15, 9.19 -0.33, 9.19 -0.17 M8.87 -0.38 C10.44 -0.42, 12.73 1.03, 14.05 2.36 C15.36 3.7, 16.53 5.78, 16.75 7.63 C16.97 9.47, 16.54 11.95, 15.37 13.45 C14.21 14.95, 11.63 16.17, 9.75 16.64 C7.87 17.1, 5.54 17.13, 4.1 16.24 C2.66 15.34, 1.62 13.01, 1.09 11.29 C0.55 9.56, 0.33 7.64, 0.89 5.9 C1.45 4.17, 3.06 1.75, 4.45 0.88 C5.85 0.01, 8.5 0.67, 9.28 0.67 C10.05 0.68, 9.08 0.75, 9.09 0.91" stroke="#ced4da" stroke-width="1" fill="none"></path></g><g stroke-linecap="round" transform="translate(741.2606680699117 32.016142221828716) rotate(0 11.702164526677848 10.68117030622949)"><path d="M13.55 -0.38 C15.81 -0.26, 18.39 1.45, 20.1 3.24 C21.82 5.03, 23.71 8.07, 23.83 10.36 C23.95 12.65, 22.42 15.13, 20.81 16.98 C19.21 18.82, 16.56 20.89, 14.19 21.43 C11.82 21.97, 8.75 21.36, 6.59 20.19 C4.43 19.03, 2.29 16.63, 1.21 14.45 C0.12 12.27, -0.62 9.29, 0.07 7.12 C0.76 4.95, 3.09 2.52, 5.36 1.42 C7.62 0.32, 12.29 0.63, 13.65 0.52 C15 0.41, 13.47 0.63, 13.49 0.76 M9.9 0.14 C12.07 -0.36, 14.91 0.69, 16.97 1.84 C19.03 2.98, 21.35 5.01, 22.27 7.01 C23.18 9.02, 23.28 11.7, 22.46 13.86 C21.64 16.03, 19.5 18.81, 17.34 20.02 C15.18 21.23, 11.79 21.56, 9.5 21.13 C7.2 20.71, 5.22 19.12, 3.59 17.44 C1.95 15.77, -0.15 13.23, -0.3 11.1 C-0.45 8.97, 1.12 6.56, 2.69 4.66 C4.25 2.76, 8.01 0.28, 9.1 -0.33 C10.19 -0.93, 9.07 0.73, 9.24 1.03" stroke="none" stroke-width="0" fill="#ced4da"></path><path d="M11.39 -0.33 C13.64 -0.64, 16.48 0.79, 18.35 2.18 C20.22 3.56, 22.02 5.74, 22.61 7.97 C23.21 10.2, 22.93 13.41, 21.92 15.56 C20.9 17.7, 18.84 19.94, 16.51 20.83 C14.19 21.72, 10.49 21.55, 7.98 20.88 C5.48 20.21, 2.81 18.78, 1.47 16.82 C0.13 14.85, -0.37 11.35, -0.07 9.09 C0.23 6.83, 1.35 4.83, 3.28 3.25 C5.2 1.67, 10.08 0.04, 11.5 -0.39 C12.91 -0.81, 11.7 0.45, 11.77 0.72 M13.1 -0.21 C15.55 0.03, 18.74 1.55, 20.47 3.33 C22.21 5.1, 23.61 8.1, 23.53 10.42 C23.46 12.75, 21.75 15.49, 20.03 17.29 C18.31 19.1, 15.5 20.92, 13.2 21.26 C10.9 21.6, 8.25 20.5, 6.25 19.32 C4.25 18.14, 2.04 16.31, 1.21 14.18 C0.38 12.04, 0.55 8.54, 1.29 6.52 C2.02 4.49, 3.6 2.97, 5.61 2.03 C7.62 1.08, 11.99 0.99, 13.33 0.84 C14.67 0.69, 13.59 1.16, 13.63 1.12" stroke="#ced4da" stroke-width="1" fill="none"></path></g><g stroke-linecap="round"><g transform="translate(783.1868016658892 45.82837889794217) rotate(359.518582079213 5.210096558591999 0.8314276618442875)" fill-rule="evenodd"><path d="M0.52 -0.2 L8.51 -0.19 L8.97 -0.11 L10.91 0.07 L8.09 2.55 L9.06 1.77 L0.46 1.91 L0.4 -0.02" stroke="none" stroke-width="0" fill="#868e96" fill-rule="evenodd"></path><path d="M0 0 C2.5 -0.31, 4.2 -0.02, 8.12 0.01 M0 0 C1.63 0.12, 3.38 -0.09, 8.12 0.01 M8.12 0.01 C8.11 -0.3, 8.08 -0.52, 8.12 -0.94 M8.12 0.01 C8.14 -0.24, 8.13 -0.49, 8.12 -0.94 M8.12 -0.94 C8.53 -0.59, 8.99 -0.13, 10.42 0.89 M8.12 -0.94 C8.67 -0.45, 9.36 -0.03, 10.42 0.89 M10.42 0.89 C9.43 1.48, 8.76 2.08, 8.01 2.61 M10.42 0.89 C9.48 1.51, 8.56 2.19, 8.01 2.61 M8.01 2.61 C8.08 2.26, 8.07 1.98, 8.13 1.75 M8.01 2.61 C8.05 2.27, 8.12 1.95, 8.13 1.75 M8.13 1.75 C5.26 1.44, 3.1 1.52, 0.06 1.75 M8.13 1.75 C5.66 1.9, 2.93 1.56, 0.06 1.75 M0.06 1.75 C0.03 1.07, 0.08 0.42, 0 0 M0.06 1.75 C0.01 1.18, -0.01 0.57, 0 0 M0 0 C0 0, 0 0, 0 0 M0 0 C0 0, 0 0, 0 0" stroke="#000000" stroke-width="1" fill="none"></path></g></g><mask></mask><g stroke-linecap="round"><g transform="translate(783.4394680249026 50.22878283493884) rotate(359.518582079213 7.223603712690988 0.8823971356577545)" fill-rule="evenodd"><path d="M0.4 -0.19 L11.96 0.84 L11.62 -1.82 L14.52 0.89 L11.91 2.79 L11.55 2.02 L0.48 1.84 L0.78 0" stroke="none" stroke-width="0" fill="#868e96" fill-rule="evenodd"></path><path d="M0 0 C3.72 0.06, 7.82 -0.32, 11.12 0.01 M0 0 C3.06 -0.18, 5.77 -0.25, 11.12 0.01 M11.12 0.01 C11.08 -0.32, 11.12 -0.77, 11.13 -1 M11.12 0.01 C11.13 -0.2, 11.1 -0.46, 11.13 -1 M11.13 -1 C11.7 -0.55, 12.47 -0.33, 14.45 0.95 M11.13 -1 C12.05 -0.57, 12.94 0.01, 14.45 0.95 M14.45 0.95 C13.29 1.52, 12.01 2.29, 10.98 2.77 M14.45 0.95 C13.09 1.59, 11.73 2.48, 10.98 2.77 M10.98 2.77 C11 2.47, 11.12 2.23, 11.14 1.85 M10.98 2.77 C11.04 2.54, 11.07 2.29, 11.14 1.85 M11.14 1.85 C8.44 1.54, 6.02 2.24, 0.08 1.85 M11.14 1.85 C8.5 1.68, 5.91 1.95, 0.08 1.85 M0.08 1.85 C0.12 1.12, 0.05 0.43, 0 0 M0.08 1.85 C0.03 1.34, 0.08 0.81, 0 0 M0 0 C0 0, 0 0, 0 0 M0 0 C0 0, 0 0, 0 0" stroke="#000000" stroke-width="1" fill="none"></path></g></g><mask></mask><g stroke-linecap="round"><g transform="translate(782.9401370057848 41.67963937930472) rotate(359.518582079213 4.196057932285839 0.8640956471636798)" fill-rule="evenodd"><path d="M0.56 0.55 L6.5 -0.54 L6.23 -1.02 L9.01 0.95 L6.36 2.82 L6.45 1.8 L0.56 1.82 L-0.09 0.46" stroke="none" stroke-width="0" fill="#868e96" fill-rule="evenodd"></path><path d="M0 0 C1.22 -0.13, 2.77 0.01, 6.17 0.01 M0 0 C2.17 -0.07, 4.41 -0.02, 6.17 0.01 M6.17 0.01 C6.17 -0.26, 6.15 -0.45, 6.18 -0.98 M6.17 0.01 C6.16 -0.35, 6.16 -0.69, 6.18 -0.98 M6.18 -0.98 C6.74 -0.54, 7.34 -0.01, 8.39 0.93 M6.18 -0.98 C6.9 -0.4, 7.58 0.17, 8.39 0.93 M8.39 0.93 C7.87 1.39, 7.27 1.87, 6.09 2.71 M8.39 0.93 C7.92 1.36, 7.4 1.73, 6.09 2.71 M6.09 2.71 C6.14 2.53, 6.12 2.33, 6.18 1.81 M6.09 2.71 C6.12 2.46, 6.14 2.17, 6.18 1.81 M6.18 1.81 C4.81 1.96, 3.23 1.96, 0.04 1.82 M6.18 1.81 C3.86 1.82, 1.48 1.79, 0.04 1.82 M0.04 1.82 C0.05 1.32, 0 0.83, 0 0 M0.04 1.82 C0.06 1.2, 0.01 0.62, 0 0 M0 0 C0 0, 0 0, 0 0 M0 0 C0 0, 0 0, 0 0" stroke="#000000" stroke-width="1" fill="none"></path></g></g><mask></mask><g stroke-linecap="round" transform="translate(716.9096322592112 10) rotate(0 104.75699371735129 132.60610218812621)"><path d="M0 0 C77.44 0, 154.88 0, 209.51 0 M0 0 C60.21 0, 120.43 0, 209.51 0 M209.51 0 C209.51 77.55, 209.51 155.1, 209.51 265.21 M209.51 0 C209.51 59.49, 209.51 118.99, 209.51 265.21 M209.51 265.21 C140.89 265.21, 72.27 265.21, 0 265.21 M209.51 265.21 C139.57 265.21, 69.62 265.21, 0 265.21 M0 265.21 C0 194.76, 0 124.31, 0 0 M0 265.21 C0 181.07, 0 96.94, 0 0" stroke="#444444" stroke-width="2" fill="none"></path></g><g transform="translate(725.3129266876443 60.77275868226684) rotate(0 39.92796325683594 10)"><text x="39.92796325683594" y="0" font-family="Virgil, Segoe UI Emoji" font-size="16px" fill="#1e1e1e" text-anchor="middle" style="white-space: pre;" direction="ltr" dominant-baseline="text-before-edge">Cloudflare</text></g><g stroke-linecap="round" transform="translate(780.2640395249203 122.0300287560749) rotate(0 48.02441435389869 47.100867924016)"><path d="M-0.16 1.77 L97.89 0.34 L95.82 95.86 L-0.22 94.81" stroke="none" stroke-width="0" fill="#868e96"></path><path d="M0 0 C27.14 -0.09, 53.52 -0.85, 96.05 0 M0 0 C32 0.14, 63.59 -0.35, 96.05 0 M96.05 0 C94.44 23.37, 93.96 48.23, 96.05 94.2 M96.05 0 C96.09 34.66, 96.32 68.86, 96.05 94.2 M96.05 94.2 C61.64 93.84, 22.53 94.29, 0 94.2 M96.05 94.2 C69.31 94.15, 40.6 95.51, 0 94.2 M0 94.2 C0.41 64.79, 1.01 30.89, 0 0 M0 94.2 C-0.3 58, 0.39 22.1, 0 0" stroke="#000000" stroke-width="1" fill="none"></path></g><g stroke-linecap="round" transform="translate(773.9931592660204 115.86997406875707) rotate(0 48.02441435389869 47.100867924016)"><path d="M1.84 0.34 L95.82 1.66 L95.83 94.81 L0 96.04" stroke="none" stroke-width="0" fill="#ced4da"></path><path d="M0 0 C26.99 -0.81, 57.9 -0.95, 96.05 0 M0 0 C28.6 -0.48, 58.61 -0.52, 96.05 0 M96.05 0 C93.63 28.25, 96.64 53.11, 96.05 94.2 M96.05 0 C96.28 26.79, 96.82 51, 96.05 94.2 M96.05 94.2 C59.58 93.16, 25.24 94.27, 0 94.2 M96.05 94.2 C59.47 93.95, 23.23 93.39, 0 94.2 M0 94.2 C0.81 72.06, 1.52 52.24, 0 0 M0 94.2 C0.66 57.74, 0.25 21.31, 0 0" stroke="#000000" stroke-width="1" fill="none"></path></g><g stroke-linecap="round" transform="translate(767.020383720407 108.98031770183297) rotate(0 48.02441435389869 47.100867924016)"><path d="M-0.23 1.66 L95.83 0.61 L96.04 96.04 L-0.57 96.11" stroke="none" stroke-width="0" fill="#eeeeee"></path><path d="M0 0 C29 -0.59, 56.71 -0.13, 96.05 0 M0 0 C30.35 -0.05, 61.58 -0.4, 96.05 0 M96.05 0 C96.41 28.93, 94.69 57.67, 96.05 94.2 M96.05 0 C97.03 34.01, 96.94 70.41, 96.05 94.2 M96.05 94.2 C71.86 94.49, 49.75 95.88, 0 94.2 M96.05 94.2 C75.42 94.7, 53.43 94.91, 0 94.2 M0 94.2 C1.23 58.1, 1.37 21.53, 0 0 M0 94.2 C-0.39 66.21, 0.6 36.62, 0 0" stroke="#000000" stroke-width="1" fill="none"></path></g><g transform="translate(785.1048261504776 129.19375371261816) rotate(0 31.939971923828125 26.88743191323084)"><text x="31.939971923828125" y="0" font-family="Virgil, Segoe UI Emoji" font-size="20px" fill="#000000" text-anchor="middle" style="white-space: pre;" direction="ltr" dominant-baseline="text-before-edge">Email</text><text x="31.939971923828125" y="26.887431913230834" font-family="Virgil, Segoe UI Emoji" font-size="20px" fill="#000000" text-anchor="middle" style="white-space: pre;" direction="ltr" dominant-baseline="text-before-edge">Worker</text></g><g mask="url(#mask-_-0E_PUiYCWTZI55O4hts)" stroke-linecap="round"><g transform="translate(120.33337402343739 96.49735010914503) rotate(0 133.50003051757812 -0.30035324095337046)"><path d="M0 0 C44.5 -0.1, 222.5 -0.5, 267 -0.6 M0 0 C44.5 -0.1, 222.5 -0.5, 267 -0.6" stroke="#1e1e1e" stroke-width="2" fill="none"></path></g><g transform="translate(120.33337402343739 96.49735010914503) rotate(0 133.50003051757812 -0.30035324095337046)"><path d="M238.83 9.72 C247.3 6.62, 255.76 3.52, 267 -0.6 M238.83 9.72 C249.64 5.76, 260.44 1.8, 267 -0.6" stroke="#1e1e1e" stroke-width="2" fill="none"></path></g><g transform="translate(120.33337402343739 96.49735010914503) rotate(0 133.50003051757812 -0.30035324095337046)"><path d="M238.79 -10.8 C247.26 -7.73, 255.74 -4.67, 267 -0.6 M238.79 -10.8 C249.61 -6.89, 260.43 -2.98, 267 -0.6" stroke="#1e1e1e" stroke-width="2" fill="none"></path></g></g><mask id="mask-_-0E_PUiYCWTZI55O4hts"><rect x="0" y="0" fill="#fff" width="487.33343505859364" height="197.09805659105177"></rect><rect x="205.37345123291004" y="71.19699686819166" fill="#000" width="96.91990661621094" height="50" opacity="1"></rect></mask><g transform="translate(205.37345123291004 71.19699686819166) rotate(0 48.45995330810547 25)"><text x="48.45995330810547" y="0" font-family="Virgil, Segoe UI Emoji" font-size="20px" fill="#1e1e1e" text-anchor="middle" style="white-space: pre;" direction="ltr" dominant-baseline="text-before-edge">Send post</text><text x="48.45995330810547" y="25" font-family="Virgil, Segoe UI Emoji" font-size="20px" fill="#1e1e1e" text-anchor="middle" style="white-space: pre;" direction="ltr" dominant-baseline="text-before-edge">[SMTP]</text></g><g mask="url(#mask-tLyTEGM5GaGVIY-7ZTqIS)" stroke-linecap="round"><g transform="translate(467.33343505859364 95.58637215199508) rotate(0 147.49996948242188 24.113244377914498)"><path d="M0 0 C49.17 8.04, 245.83 40.19, 295 48.23 M0 0 C49.17 8.04, 245.83 40.19, 295 48.23" stroke="#1e1e1e" stroke-width="2" fill="none"></path></g><g transform="translate(467.33343505859364 95.58637215199508) rotate(0 147.49996948242188 24.113244377914498)"><path d="M265.52 53.8 C276.22 51.78, 286.91 49.76, 295 48.23 M265.52 53.8 C276.83 51.67, 288.13 49.53, 295 48.23" stroke="#1e1e1e" stroke-width="2" fill="none"></path></g><g transform="translate(467.33343505859364 95.58637215199508) rotate(0 147.49996948242188 24.113244377914498)"><path d="M268.83 33.55 C278.33 38.88, 287.82 44.2, 295 48.23 M268.83 33.55 C278.87 39.18, 288.91 44.81, 295 48.23" stroke="#1e1e1e" stroke-width="2" fill="none"></path></g></g><mask id="mask-tLyTEGM5GaGVIY-7ZTqIS"><rect x="0" y="0" fill="#fff" width="862.3333740234374" height="243.81286090782407"></rect><rect x="576.5034332275391" y="94.69961652990958" fill="#000" width="76.65994262695312" height="50" opacity="1"></rect></mask><g transform="translate(576.5034332275391 94.69961652990958) rotate(0 38.32997131347656 25)"><text x="38.32997131347656" y="0" font-family="Virgil, Segoe UI Emoji" font-size="20px" fill="#1e1e1e" text-anchor="middle" style="white-space: pre;" direction="ltr" dominant-baseline="text-before-edge">Forward</text><text x="38.32997131347656" y="25" font-family="Virgil, Segoe UI Emoji" font-size="20px" fill="#1e1e1e" text-anchor="middle" style="white-space: pre;" direction="ltr" dominant-baseline="text-before-edge">[SMTP]</text></g><g mask="url(#mask-7jla4KcPPzBacdKk_kek5)" stroke-linecap="round"><g transform="translate(755.6282655789015 181.17205524802398) rotate(0 -269.9472851941845 146.7881244105812)"><path d="M0 0 C-44.27 17.18, -175.65 54.17, -265.63 103.1 C-355.61 152.03, -494.18 261.83, -539.89 293.58 M0 0 C-44.27 17.18, -175.65 54.17, -265.63 103.1 C-355.61 152.03, -494.18 261.83, -539.89 293.58" stroke="#1e1e1e" stroke-width="2" fill="none"></path></g><g transform="translate(755.6282655789015 181.17205524802398) rotate(0 -269.9472851941845 146.7881244105812)"><path d="M-523.27 268.61 C-528.4 276.32, -533.54 284.04, -539.89 293.58 M-523.27 268.61 C-527.3 274.66, -531.33 280.71, -539.89 293.58" stroke="#1e1e1e" stroke-width="2" fill="none"></path></g><g transform="translate(755.6282655789015 181.17205524802398) rotate(0 -269.9472851941845 146.7881244105812)"><path d="M-511.11 285.14 C-520 287.74, -528.89 290.35, -539.89 293.58 M-511.11 285.14 C-518.08 287.18, -525.06 289.23, -539.89 293.58" stroke="#1e1e1e" stroke-width="2" fill="none"></path></g></g><mask id="mask-7jla4KcPPzBacdKk_kek5"><rect x="0" y="0" fill="#fff" width="1395.5228359672706" height="574.7483040691864"></rect><rect x="439.4801788330076" y="246.77272816468871" fill="#000" width="101.03988647460938" height="75" opacity="1"></rect></mask><g transform="translate(439.4801788330078 246.77272816468871) rotate(0 46.20080155170933 81.18745149391646)"><text x="50.51994323730469" y="0" font-family="Virgil, Segoe UI Emoji" font-size="20px" fill="#1e1e1e" text-anchor="middle" style="white-space: pre;" direction="ltr" dominant-baseline="text-before-edge">Repository</text><text x="50.51994323730469" y="25" font-family="Virgil, Segoe UI Emoji" font-size="20px" fill="#1e1e1e" text-anchor="middle" style="white-space: pre;" direction="ltr" dominant-baseline="text-before-edge">dispatch</text><text x="50.51994323730469" y="50" font-family="Virgil, Segoe UI Emoji" font-size="20px" fill="#1e1e1e" text-anchor="middle" style="white-space: pre;" direction="ltr" dominant-baseline="text-before-edge">[REST]</text></g><g stroke-linecap="round" transform="translate(55.602412735952726 361.7731647540876) rotate(0 26.897232676619126 26.871476040497726)"><path d="M0 0 C0 0, 0 0, 0 0 M0 0 C0 0, 0 0, 0 0 M0.13 12.04 C4.23 7.33, 8.33 2.61, 10.63 -0.03 M0.13 12.04 C2.85 8.91, 5.58 5.78, 10.63 -0.03 M0.27 24.08 C8.51 14.59, 16.76 5.11, 21.26 -0.07 M0.27 24.08 C5.87 17.63, 11.48 11.19, 21.26 -0.07 M-0.26 36.88 C11.25 23.64, 22.76 10.4, 31.89 -0.1 M-0.26 36.88 C6.46 29.15, 13.18 21.42, 31.89 -0.1 M-0.12 48.92 C15.81 30.59, 31.75 12.26, 42.52 -0.14 M-0.12 48.92 C10.09 37.17, 20.3 25.42, 42.52 -0.14 M5.91 54.17 C17.19 41.2, 28.46 28.23, 53.15 -0.17 M5.91 54.17 C20.07 37.88, 34.23 21.6, 53.15 -0.17 M16.54 54.13 C27.43 41.61, 38.31 29.1, 53.94 11.11 M16.54 54.13 C25.53 43.8, 34.51 33.46, 53.94 11.11 M27.17 54.1 C36.21 43.71, 45.24 33.31, 54.07 23.15 M27.17 54.1 C33.71 46.58, 40.25 39.06, 54.07 23.15 M37.8 54.06 C42.3 48.89, 46.79 43.73, 54.21 35.2 M37.8 54.06 C43.43 47.59, 49.05 41.12, 54.21 35.2 M48.43 54.03 C49.79 52.47, 51.14 50.91, 54.34 47.24 M48.43 54.03 C49.91 52.33, 51.38 50.64, 54.34 47.24 M-0.2 53.57 C-0.2 53.57, -0.2 53.57, -0.2 53.57 M-0.2 53.57 C-0.2 53.57, -0.2 53.57, -0.2 53.57 M11.85 53.44 C8.51 50.54, 5.18 47.65, -0.23 42.94 M11.85 53.44 C7.89 50, 3.93 46.56, -0.23 42.94 M24.64 53.96 C17.52 47.77, 10.4 41.58, -0.26 32.31 M24.64 53.96 C17.41 47.68, 10.18 41.39, -0.26 32.31 M36.68 53.83 C25.29 43.92, 13.89 34.02, -0.3 21.68 M36.68 53.83 C22.44 41.45, 8.2 29.07, -0.3 21.68 M48.72 53.7 C38.61 44.9, 28.5 36.11, -0.33 11.05 M48.72 53.7 C32.81 39.86, 16.89 26.02, -0.33 11.05 M53.97 47.66 C35.71 31.79, 17.46 15.92, -0.37 0.42 M53.97 47.66 C36.2 32.21, 18.43 16.76, -0.37 0.42 M53.94 37.03 C37.84 23.04, 21.75 9.05, 10.92 -0.37 M53.94 37.03 C43.64 28.08, 33.35 19.13, 10.92 -0.37 M53.9 26.4 C46.31 19.8, 38.71 13.19, 22.96 -0.5 M53.9 26.4 C42.83 16.78, 31.76 7.15, 22.96 -0.5 M54.62 16.42 C47.72 10.42, 40.82 4.42, 35 -0.63 M54.62 16.42 C47.74 10.44, 40.86 4.46, 35 -0.63 M54.59 5.79 C52.55 4.03, 50.52 2.26, 47.8 -0.11 M54.59 5.79 C52.69 4.14, 50.79 2.49, 47.8 -0.11" stroke="#ced4da" stroke-width="1" fill="none"></path><path d="M0 0 C20.26 0, 40.52 0, 53.79 0 M0 0 C11.26 0, 22.52 0, 53.79 0 M53.79 0 C53.79 19.58, 53.79 39.16, 53.79 53.74 M53.79 0 C53.79 12.19, 53.79 24.39, 53.79 53.74 M53.79 53.74 C34.59 53.74, 15.38 53.74, 0 53.74 M53.79 53.74 C34.73 53.74, 15.67 53.74, 0 53.74 M0 53.74 C0 42.49, 0 31.24, 0 0 M0 53.74 C0 35.64, 0 17.53, 0 0" stroke="#000000" stroke-width="2" fill="none"></path></g><g stroke-linecap="round" transform="translate(60.85101367691766 367.09095082114357) rotate(0 21.648631735654078 21.648631735654078)"><path d="M43.3 21.65 C43.3 22.9, 43.19 24.17, 42.97 25.41 C42.75 26.64, 42.42 27.88, 41.99 29.05 C41.56 30.23, 41.02 31.39, 40.4 32.47 C39.77 33.56, 39.04 34.6, 38.23 35.56 C37.43 36.52, 36.52 37.43, 35.56 38.23 C34.6 39.04, 33.56 39.77, 32.47 40.4 C31.39 41.02, 30.23 41.56, 29.05 41.99 C27.88 42.42, 26.64 42.75, 25.41 42.97 C24.17 43.19, 22.9 43.3, 21.65 43.3 C20.4 43.3, 19.12 43.19, 17.89 42.97 C16.66 42.75, 15.42 42.42, 14.24 41.99 C13.07 41.56, 11.91 41.02, 10.82 40.4 C9.74 39.77, 8.69 39.04, 7.73 38.23 C6.77 37.43, 5.87 36.52, 5.06 35.56 C4.26 34.6, 3.53 33.56, 2.9 32.47 C2.27 31.39, 1.73 30.23, 1.31 29.05 C0.88 27.88, 0.55 26.64, 0.33 25.41 C0.11 24.17, 0 22.9, 0 21.65 C0 20.4, 0.11 19.12, 0.33 17.89 C0.55 16.66, 0.88 15.42, 1.31 14.24 C1.73 13.07, 2.27 11.91, 2.9 10.82 C3.53 9.74, 4.26 8.69, 5.06 7.73 C5.87 6.77, 6.77 5.87, 7.73 5.06 C8.69 4.26, 9.74 3.53, 10.82 2.9 C11.91 2.27, 13.07 1.73, 14.24 1.31 C15.42 0.88, 16.66 0.55, 17.89 0.33 C19.12 0.11, 20.4 0, 21.65 0 C22.9 0, 24.17 0.11, 25.41 0.33 C26.64 0.55, 27.88 0.88, 29.05 1.31 C30.23 1.73, 31.39 2.27, 32.47 2.9 C33.56 3.53, 34.6 4.26, 35.56 5.06 C36.52 5.87, 37.43 6.77, 38.23 7.73 C39.04 8.69, 39.77 9.74, 40.4 10.82 C41.02 11.91, 41.56 13.07, 41.99 14.24 C42.42 15.42, 42.75 16.66, 42.97 17.89 C43.19 19.12, 43.24 21.02, 43.3 21.65 C43.35 22.28, 43.35 21.02, 43.3 21.65" stroke="none" stroke-width="0" fill="#868e96"></path><path d="M43.3 21.65 C43.3 22.9, 43.19 24.17, 42.97 25.41 C42.75 26.64, 42.42 27.88, 41.99 29.05 C41.56 30.23, 41.02 31.39, 40.4 32.47 C39.77 33.56, 39.04 34.6, 38.23 35.56 C37.43 36.52, 36.52 37.43, 35.56 38.23 C34.6 39.04, 33.56 39.77, 32.47 40.4 C31.39 41.02, 30.23 41.56, 29.05 41.99 C27.88 42.42, 26.64 42.75, 25.41 42.97 C24.17 43.19, 22.9 43.3, 21.65 43.3 C20.4 43.3, 19.12 43.19, 17.89 42.97 C16.66 42.75, 15.42 42.42, 14.24 41.99 C13.07 41.56, 11.91 41.02, 10.82 40.4 C9.74 39.77, 8.69 39.04, 7.73 38.23 C6.77 37.43, 5.87 36.52, 5.06 35.56 C4.26 34.6, 3.53 33.56, 2.9 32.47 C2.27 31.39, 1.73 30.23, 1.31 29.05 C0.88 27.88, 0.55 26.64, 0.33 25.41 C0.11 24.17, 0 22.9, 0 21.65 C0 20.4, 0.11 19.12, 0.33 17.89 C0.55 16.66, 0.88 15.42, 1.31 14.24 C1.73 13.07, 2.27 11.91, 2.9 10.82 C3.53 9.74, 4.26 8.69, 5.06 7.73 C5.87 6.77, 6.77 5.87, 7.73 5.06 C8.69 4.26, 9.74 3.53, 10.82 2.9 C11.91 2.27, 13.07 1.73, 14.24 1.31 C15.42 0.88, 16.66 0.55, 17.89 0.33 C19.12 0.11, 20.4 0, 21.65 0 C22.9 0, 24.17 0.11, 25.41 0.33 C26.64 0.55, 27.88 0.88, 29.05 1.31 C30.23 1.73, 31.39 2.27, 32.47 2.9 C33.56 3.53, 34.6 4.26, 35.56 5.06 C36.52 5.87, 37.43 6.77, 38.23 7.73 C39.04 8.69, 39.77 9.74, 40.4 10.82 C41.02 11.91, 41.56 13.07, 41.99 14.24 C42.42 15.42, 42.75 16.66, 42.97 17.89 C43.19 19.12, 43.24 21.02, 43.3 21.65 C43.35 22.28, 43.35 21.02, 43.3 21.65" stroke="#000000" stroke-width="1" fill="none"></path></g><g stroke-linecap="round"><g transform="translate(73.99292178870644 375.7767328366542) rotate(0 6.761145687390297 13.118298170031096)" fill-rule="evenodd"><path d="M0 0 C0.35 0.12, 1.52 0.36, 2.1 0.74 C2.69 1.12, 2.96 2.11, 3.52 2.26 C4.08 2.41, 4.24 1.72, 5.46 1.63 C6.68 1.53, 9.67 1.66, 10.85 1.7 C12.03 1.74, 12.04 2.01, 12.53 1.87 C13.03 1.72, 13.32 1.21, 13.83 0.83 C14.35 0.45, 15.26 -0.5, 15.64 -0.43 C16.03 -0.35, 16.06 0.73, 16.14 1.3 C16.21 1.87, 15.82 2.43, 16.09 2.98 C16.36 3.52, 17.35 3.54, 17.75 4.56 C18.15 5.58, 18.46 7.55, 18.49 9.1 C18.51 10.65, 18.29 12.76, 17.91 13.86 C17.53 14.96, 16.89 15.24, 16.22 15.71 C15.56 16.18, 14.72 16.44, 13.93 16.7 C13.13 16.95, 11.75 17.05, 11.45 17.25 C11.14 17.44, 11.87 17.53, 12.1 17.86 C12.34 18.19, 12.69 18.29, 12.84 19.23 C12.99 20.17, 12.98 22.37, 13 23.51 C13.02 24.66, 13.11 25.6, 12.97 26.11 C12.83 26.62, 13.31 26.47, 12.16 26.56 C11 26.65, 7.19 26.77, 6.04 26.66 C4.9 26.55, 5.44 26.55, 5.28 25.91 C5.11 25.28, 5.33 23.3, 5.06 22.86 C4.79 22.42, 4.28 23.16, 3.65 23.25 C3.03 23.34, 2.07 23.59, 1.32 23.4 C0.57 23.22, -0.27 22.72, -0.86 22.15 C-1.45 21.58, -1.77 20.55, -2.22 19.97 C-2.67 19.38, -3.08 19, -3.54 18.62 C-4 18.24, -5.05 17.8, -4.97 17.67 C-4.88 17.55, -3.58 17.65, -3.03 17.86 C-2.48 18.07, -2.14 18.5, -1.66 18.92 C-1.17 19.34, -0.67 20, -0.1 20.4 C0.48 20.79, 1.13 21.21, 1.79 21.32 C2.46 21.43, 3.37 21.23, 3.89 21.05 C4.41 20.88, 4.74 20.59, 4.93 20.24 C5.12 19.89, 4.92 19.36, 5.03 18.96 C5.14 18.56, 5.37 18.11, 5.58 17.84 C5.8 17.57, 6.64 17.54, 6.31 17.34 C5.97 17.14, 4.46 16.9, 3.57 16.64 C2.68 16.37, 1.61 16.24, 0.95 15.77 C0.29 15.3, 0.01 14.93, -0.38 13.83 C-0.77 12.73, -1.35 10.66, -1.38 9.15 C-1.41 7.63, -0.91 5.68, -0.59 4.75 C-0.26 3.81, 0.48 4.01, 0.56 3.54 C0.64 3.06, -0.01 2.49, -0.1 1.9 C-0.19 1.31, -0.02 0.32, 0 0" stroke="none" stroke-width="0" fill="#fff" fill-rule="evenodd"></path><path d="M0 0 C0.35 0.12, 1.52 0.36, 2.1 0.74 C2.69 1.12, 2.96 2.11, 3.52 2.26 C4.08 2.41, 4.24 1.72, 5.46 1.63 C6.68 1.53, 9.67 1.66, 10.85 1.7 C12.03 1.74, 12.04 2.01, 12.53 1.87 C13.03 1.72, 13.32 1.21, 13.83 0.83 C14.35 0.45, 15.26 -0.5, 15.64 -0.43 C16.03 -0.35, 16.06 0.73, 16.14 1.3 C16.21 1.87, 15.82 2.43, 16.09 2.98 C16.36 3.52, 17.35 3.54, 17.75 4.56 C18.15 5.58, 18.46 7.55, 18.49 9.1 C18.51 10.65, 18.29 12.76, 17.91 13.86 C17.53 14.96, 16.89 15.24, 16.22 15.71 C15.56 16.18, 14.72 16.44, 13.93 16.7 C13.13 16.95, 11.75 17.05, 11.45 17.25 C11.14 17.44, 11.87 17.53, 12.1 17.86 C12.34 18.19, 12.69 18.29, 12.84 19.23 C12.99 20.17, 12.98 22.37, 13 23.51 C13.02 24.66, 13.11 25.6, 12.97 26.11 C12.83 26.62, 13.31 26.47, 12.16 26.56 C11 26.65, 7.19 26.77, 6.04 26.66 C4.9 26.55, 5.44 26.55, 5.28 25.91 C5.11 25.28, 5.33 23.3, 5.06 22.86 C4.79 22.42, 4.28 23.16, 3.65 23.25 C3.03 23.34, 2.07 23.59, 1.32 23.4 C0.57 23.22, -0.27 22.72, -0.86 22.15 C-1.45 21.58, -1.77 20.55, -2.22 19.97 C-2.67 19.38, -3.08 19, -3.54 18.62 C-4 18.24, -5.05 17.8, -4.97 17.67 C-4.88 17.55, -3.58 17.65, -3.03 17.86 C-2.48 18.07, -2.14 18.5, -1.66 18.92 C-1.17 19.34, -0.67 20, -0.1 20.4 C0.48 20.79, 1.13 21.21, 1.79 21.32 C2.46 21.43, 3.37 21.23, 3.89 21.05 C4.41 20.88, 4.74 20.59, 4.93 20.24 C5.12 19.89, 4.92 19.36, 5.03 18.96 C5.14 18.56, 5.37 18.11, 5.58 17.84 C5.8 17.57, 6.64 17.54, 6.31 17.34 C5.97 17.14, 4.46 16.9, 3.57 16.64 C2.68 16.37, 1.61 16.24, 0.95 15.77 C0.29 15.3, 0.01 14.93, -0.38 13.83 C-0.77 12.73, -1.35 10.66, -1.38 9.15 C-1.41 7.63, -0.91 5.68, -0.59 4.75 C-0.26 3.81, 0.48 4.01, 0.56 3.54 C0.64 3.06, -0.01 2.49, -0.1 1.9 C-0.19 1.31, -0.02 0.32, 0 0 M0 0 C0.35 0.12, 1.52 0.36, 2.1 0.74 C2.69 1.12, 2.96 2.11, 3.52 2.26 C4.08 2.41, 4.24 1.72, 5.46 1.63 C6.68 1.53, 9.67 1.66, 10.85 1.7 C12.03 1.74, 12.04 2.01, 12.53 1.87 C13.03 1.72, 13.32 1.21, 13.83 0.83 C14.35 0.45, 15.26 -0.5, 15.64 -0.43 C16.03 -0.35, 16.06 0.73, 16.14 1.3 C16.21 1.87, 15.82 2.43, 16.09 2.98 C16.36 3.52, 17.35 3.54, 17.75 4.56 C18.15 5.58, 18.46 7.55, 18.49 9.1 C18.51 10.65, 18.29 12.76, 17.91 13.86 C17.53 14.96, 16.89 15.24, 16.22 15.71 C15.56 16.18, 14.72 16.44, 13.93 16.7 C13.13 16.95, 11.75 17.05, 11.45 17.25 C11.14 17.44, 11.87 17.53, 12.1 17.86 C12.34 18.19, 12.69 18.29, 12.84 19.23 C12.99 20.17, 12.98 22.37, 13 23.51 C13.02 24.66, 13.11 25.6, 12.97 26.11 C12.83 26.62, 13.31 26.47, 12.16 26.56 C11 26.65, 7.19 26.77, 6.04 26.66 C4.9 26.55, 5.44 26.55, 5.28 25.91 C5.11 25.28, 5.33 23.3, 5.06 22.86 C4.79 22.42, 4.28 23.16, 3.65 23.25 C3.03 23.34, 2.07 23.59, 1.32 23.4 C0.57 23.22, -0.27 22.72, -0.86 22.15 C-1.45 21.58, -1.77 20.55, -2.22 19.97 C-2.67 19.38, -3.08 19, -3.54 18.62 C-4 18.24, -5.05 17.8, -4.97 17.67 C-4.88 17.55, -3.58 17.65, -3.03 17.86 C-2.48 18.07, -2.14 18.5, -1.66 18.92 C-1.17 19.34, -0.67 20, -0.1 20.4 C0.48 20.79, 1.13 21.21, 1.79 21.32 C2.46 21.43, 3.37 21.23, 3.89 21.05 C4.41 20.88, 4.74 20.59, 4.93 20.24 C5.12 19.89, 4.92 19.36, 5.03 18.96 C5.14 18.56, 5.37 18.11, 5.58 17.84 C5.8 17.57, 6.64 17.54, 6.31 17.34 C5.97 17.14, 4.46 16.9, 3.57 16.64 C2.68 16.37, 1.61 16.24, 0.95 15.77 C0.29 15.3, 0.01 14.93, -0.38 13.83 C-0.77 12.73, -1.35 10.66, -1.38 9.15 C-1.41 7.63, -0.91 5.68, -0.59 4.75 C-0.26 3.81, 0.48 4.01, 0.56 3.54 C0.64 3.06, -0.01 2.49, -0.1 1.9 C-0.19 1.31, -0.02 0.32, 0 0" stroke="#000000" stroke-width="1" fill="none"></path></g></g><mask></mask><g transform="translate(57.33298891843185 420.27241364560234) rotate(0 25.59998321533203 10)"><text x="0" y="0" font-family="Virgil, Segoe UI Emoji" font-size="16px" fill="#000000" text-anchor="start" style="white-space: pre;" direction="ltr" dominant-baseline="text-before-edge">GitHub</text></g><g stroke-linecap="round" transform="translate(50.40933870694016 356.3333740234375) rotate(0 255.42369598785893 208.9394456939856)"><path d="M0 0 C193.22 0, 386.44 0, 510.85 0 M0 0 C129.35 0, 258.69 0, 510.85 0 M510.85 0 C510.85 84.67, 510.85 169.35, 510.85 417.88 M510.85 0 C510.85 161.49, 510.85 322.98, 510.85 417.88 M510.85 417.88 C373.73 417.88, 236.61 417.88, 0 417.88 M510.85 417.88 C310.79 417.88, 110.74 417.88, 0 417.88 M0 417.88 C0 257.02, 0 96.17, 0 0 M0 417.88 C0 279.65, 0 141.43, 0 0" stroke="#444444" stroke-width="2" fill="none"></path></g><g stroke-linecap="round" transform="translate(113.43034143163356 475.83894816643203) rotate(0 48.02441435389869 47.10086792401597)"><path d="M1.71 -1.17 L95.17 -1.55 L97.08 92.81 L0.36 92.39" stroke="none" stroke-width="0" fill="#868e96"></path><path d="M0 0 C33.12 0, 66.39 -0.17, 96.05 0 M0 0 C36.96 -0.4, 75.07 0.87, 96.05 0 M96.05 0 C96.03 20.82, 98.08 44.91, 96.05 94.2 M96.05 0 C96.11 21.36, 94.35 40.77, 96.05 94.2 M96.05 94.2 C72.41 94.78, 51.91 93.81, 0 94.2 M96.05 94.2 C62.81 94.17, 31.56 93.79, 0 94.2 M0 94.2 C0.26 59.18, -0.4 25.89, 0 0 M0 94.2 C-0.73 72.25, 0.41 49.84, 0 0" stroke="#000000" stroke-width="1" fill="none"></path></g><g stroke-linecap="round" transform="translate(107.15946117273359 469.6788934791142) rotate(0 48.02441435389869 47.10086792401597)"><path d="M-0.88 -1.55 L97.08 -1.39 L96.41 92.39 L0.96 96.1" stroke="none" stroke-width="0" fill="#ced4da"></path><path d="M0 0 C22.66 -0.52, 46.13 -0.82, 96.05 0 M0 0 C28.91 1.25, 57.19 0.52, 96.05 0 M96.05 0 C97.87 27.96, 94.36 51.34, 96.05 94.2 M96.05 0 C95.87 27.04, 96.18 54.63, 96.05 94.2 M96.05 94.2 C61.8 93.1, 25.88 93.06, 0 94.2 M96.05 94.2 C68.33 93.79, 39.29 94.79, 0 94.2 M0 94.2 C-0.22 57.32, -1.64 22.12, 0 0 M0 94.2 C1.12 59.32, 1.06 23.14, 0 0" stroke="#000000" stroke-width="1" fill="none"></path></g><g stroke-linecap="round" transform="translate(100.18668562712026 462.7892371121901) rotate(0 48.02441435389869 47.10086792401597)"><path d="M1.03 -1.39 L96.41 -1.82 L97 96.1 L0.49 94.62" stroke="none" stroke-width="0" fill="#eeeeee"></path><path d="M0 0 C27.46 -0.74, 51.3 -0.78, 96.05 0 M0 0 C24.4 -0.7, 50.01 -0.92, 96.05 0 M96.05 0 C95.32 22.45, 96.79 49.74, 96.05 94.2 M96.05 0 C94.52 34.56, 95.85 69.59, 96.05 94.2 M96.05 94.2 C68.48 92.59, 39.25 92.65, 0 94.2 M96.05 94.2 C67.97 94.42, 39.56 94.23, 0 94.2 M0 94.2 C-1.33 71.79, 1.4 46.8, 0 0 M0 94.2 C-0.01 61.55, -1.3 29.28, 0 0" stroke="#000000" stroke-width="1" fill="none"></path></g><g transform="translate(106.92113721246426 472.39010503620614) rotate(0 41.28996276855469 37.5)"><text x="41.28996276855469" y="0" font-family="Virgil, Segoe UI Emoji" font-size="20px" fill="#1e1e1e" text-anchor="middle" style="white-space: pre;" direction="ltr" dominant-baseline="text-before-edge">Ingest </text><text x="41.28996276855469" y="25" font-family="Virgil, Segoe UI Emoji" font-size="20px" fill="#1e1e1e" text-anchor="middle" style="white-space: pre;" direction="ltr" dominant-baseline="text-before-edge">Email </text><text x="41.28996276855469" y="50" font-family="Virgil, Segoe UI Emoji" font-size="20px" fill="#1e1e1e" text-anchor="middle" style="white-space: pre;" direction="ltr" dominant-baseline="text-before-edge">Workflow</text></g><g stroke-linecap="round" transform="translate(408.43046350194606 475.83894816643203) rotate(0 48.02441435389869 47.10086792401597)"><path d="M-0.77 -1.17 L97.61 0.02 L97.34 92.77 L-1.94 92.35" stroke="none" stroke-width="0" fill="#868e96"></path><path d="M0 0 C27.24 -2.18, 57.03 1.29, 96.05 0 M0 0 C26.63 -0.53, 51.25 -0.51, 96.05 0 M96.05 0 C95.29 35.28, 96.2 74.3, 96.05 94.2 M96.05 0 C95.98 28.37, 96.89 57.2, 96.05 94.2 M96.05 94.2 C62.83 92.02, 32.27 94.86, 0 94.2 M96.05 94.2 C58.28 94.34, 19.6 93.84, 0 94.2 M0 94.2 C-0.92 64.08, 1.06 33.9, 0 0 M0 94.2 C-1.67 72.99, -0.8 50.57, 0 0" stroke="#000000" stroke-width="1" fill="none"></path></g><g stroke-linecap="round" transform="translate(402.1595832430461 469.6788934791142) rotate(0 48.02441435389869 47.10086792401597)"><path d="M1.56 0.02 L97.34 -1.43 L94.11 92.35 L-0.17 96.08" stroke="none" stroke-width="0" fill="#ced4da"></path><path d="M0 0 C35.13 2.67, 69.63 1.15, 96.05 0 M0 0 C25.54 -0.02, 52.76 0.52, 96.05 0 M96.05 0 C96.21 28.12, 95.96 54.93, 96.05 94.2 M96.05 0 C96.76 22.12, 96.31 46.15, 96.05 94.2 M96.05 94.2 C74.24 94.76, 53.09 95.11, 0 94.2 M96.05 94.2 C68.9 94.45, 43.48 94.18, 0 94.2 M0 94.2 C1.3 72.26, -0.83 54.49, 0 0 M0 94.2 C0.82 71.42, 0.4 49.38, 0 0" stroke="#000000" stroke-width="1" fill="none"></path></g><g stroke-linecap="round" transform="translate(395.18680769743276 462.7892371121901) rotate(0 48.02441435389869 47.10086792401597)"><path d="M1.29 -1.43 L94.11 -1.85 L95.88 96.08 L-0.13 92.59" stroke="none" stroke-width="0" fill="#eeeeee"></path><path d="M0 0 C20.75 -0.51, 42.15 0.69, 96.05 0 M0 0 C21.9 0.5, 41.89 0.52, 96.05 0 M96.05 0 C96.39 21.11, 95.09 41.9, 96.05 94.2 M96.05 0 C97.16 23, 96.14 44.66, 96.05 94.2 M96.05 94.2 C76.52 96.48, 52.73 94.95, 0 94.2 M96.05 94.2 C63.65 93.69, 30.17 93.44, 0 94.2 M0 94.2 C-1.76 70.43, -1.63 41.42, 0 0 M0 94.2 C-0.42 62.8, 0.75 32.58, 0 0" stroke="#000000" stroke-width="1" fill="none"></path></g><g transform="translate(401.92125928277676 484.89010503620614) rotate(0 41.28996276855469 25)"><text x="41.28996276855469" y="0" font-family="Virgil, Segoe UI Emoji" font-size="20px" fill="#1e1e1e" text-anchor="middle" style="white-space: pre;" direction="ltr" dominant-baseline="text-before-edge">Deploy </text><text x="41.28996276855469" y="25" font-family="Virgil, Segoe UI Emoji" font-size="20px" fill="#1e1e1e" text-anchor="middle" style="white-space: pre;" direction="ltr" dominant-baseline="text-before-edge">Workflow</text></g><g stroke-linecap="round"><g transform="translate(789.816177517344 464.0046491874168) rotate(0 35.79351071797555 38.8735480581895)" fill-rule="evenodd"><path d="M2.45 -1.07 C2.77 9.85, 0.63 54.45, 0.09 67.86 C-0.46 81.27, -1.05 77.22, -0.82 79.41 C-0.59 81.61, -1.41 80.26, 1.45 81.04 C4.31 81.82, 10.55 83.45, 16.34 84.12 C22.13 84.79, 28.86 85.46, 36.19 85.08 C43.51 84.7, 55.07 82.55, 60.29 81.84 C65.51 81.13, 65.58 81.3, 67.5 80.82 C69.41 80.34, 70.81 80.42, 71.76 78.96 C72.72 77.51, 73.31 84.32, 73.22 72.1 C73.14 59.89, 71.45 17.54, 71.24 5.68 C71.02 -6.18, 72.33 2.88, 71.93 0.96 C71.52 -0.96, 71.43 -4.34, 68.78 -5.84 C66.13 -7.34, 62.09 -7.74, 56.03 -8.02 C49.97 -8.3, 38.73 -8.16, 32.43 -7.52 C26.14 -6.89, 23.21 -5.15, 18.28 -4.2 C13.34 -3.26, 5.89 -2.44, 2.81 -1.85 C-0.26 -1.26, 0.38 -1.1, -0.18 -0.66 C-0.75 -0.22, -0.32 0.95, -0.57 0.8" stroke="none" stroke-width="0" fill="#ced4da" fill-rule="evenodd"></path><path d="M-0.47 -0.23 C-0.53 11.19, -0.92 56.23, -0.79 69.43 C-0.67 82.63, -0.52 77, 0.29 78.98 C1.11 80.95, 1.22 80.53, 4.09 81.28 C6.96 82.03, 11.72 82.79, 17.52 83.49 C23.32 84.18, 31.93 85.57, 38.88 85.44 C45.83 85.31, 54.04 83.52, 59.21 82.71 C64.38 81.9, 67.92 81.43, 69.89 80.59 C71.86 79.75, 70.66 79.19, 71.05 77.67 C71.44 76.14, 72.29 83.47, 72.24 71.44 C72.2 59.41, 70.85 17.33, 70.79 5.49 C70.73 -6.36, 72.59 1.84, 71.91 0.37 C71.22 -1.11, 69.01 -2.55, 66.68 -3.39 C64.36 -4.23, 63.32 -4.02, 57.95 -4.69 C52.58 -5.35, 41.19 -6.95, 34.47 -7.39 C27.75 -7.84, 22.75 -8.24, 17.62 -7.36 C12.5 -6.47, 6.59 -3.28, 3.7 -2.1 C0.82 -0.91, 0.97 -0.49, 0.3 -0.25 C-0.36 -0.01, -0.22 -0.81, -0.28 -0.66 M1.49 -1.4 C1.82 10.1, 1.68 57.61, 1.38 70.71 C1.08 83.82, -0.85 75.28, -0.33 77.22 C0.2 79.16, 1.73 81.33, 4.55 82.37 C7.36 83.42, 11.17 83.13, 16.58 83.5 C21.99 83.86, 29.76 84.4, 37 84.57 C44.24 84.74, 54.73 85.2, 60.04 84.52 C65.36 83.83, 66.75 81.79, 68.88 80.45 C71.02 79.11, 72.1 78, 72.85 76.48 C73.59 74.95, 73.69 82.98, 73.34 71.28 C72.99 59.58, 71.16 18.11, 70.76 6.27 C70.36 -5.56, 71.56 2, 70.93 0.28 C70.31 -1.44, 69.2 -3.28, 67.03 -4.05 C64.85 -4.82, 63.25 -3.69, 57.86 -4.34 C52.47 -5, 41.77 -7.58, 34.68 -7.96 C27.6 -8.34, 20.65 -7.19, 15.33 -6.62 C10.01 -6.05, 5.47 -5.64, 2.78 -4.54 C0.09 -3.43, -0.04 -0.62, -0.8 0.01 C-1.57 0.64, -2.01 -0.62, -1.81 -0.76" stroke="#000000" stroke-width="1" fill="none"></path></g></g><mask></mask><g stroke-linecap="round" transform="translate(789.9666825632572 456.7964789243889) rotate(0 35.602425041199126 7.2003226165410865)"><path d="M41.35 0.27 C48.58 0.5, 57.97 1.87, 62.87 2.98 C67.77 4.1, 70.8 5.58, 70.77 6.97 C70.73 8.35, 67.43 10.04, 62.66 11.3 C57.89 12.57, 49.49 14.19, 42.15 14.54 C34.8 14.89, 25.2 14.23, 18.59 13.42 C11.99 12.62, 5.3 11.16, 2.52 9.71 C-0.26 8.25, -0.63 6.2, 1.89 4.7 C4.4 3.19, 10.75 1.35, 17.62 0.66 C24.48 -0.03, 38.51 0.68, 43.07 0.58 C47.63 0.48, 45.02 0, 44.98 0.05 M34.24 -0.61 C41.35 -0.61, 51.42 1.11, 57.42 2.05 C63.42 2.99, 68.51 3.72, 70.22 5.04 C71.94 6.37, 71.4 8.58, 67.71 10 C64.03 11.43, 55.33 12.95, 48.12 13.61 C40.91 14.27, 31.62 14.34, 24.44 13.95 C17.26 13.55, 9 12.62, 5.05 11.23 C1.11 9.85, -0.26 7.32, 0.77 5.65 C1.79 3.97, 5.57 2.23, 11.2 1.17 C16.84 0.11, 30.66 -0.46, 34.57 -0.69 C38.47 -0.92, 34.59 -0.55, 34.62 -0.21" stroke="none" stroke-width="0" fill="#fff"></path><path d="M37.67 0.43 C44.8 0.45, 54.17 1.25, 59.74 2.26 C65.31 3.27, 70.23 5.03, 71.1 6.51 C71.97 8, 69.13 9.93, 64.94 11.17 C60.75 12.41, 53.18 13.47, 45.96 13.95 C38.75 14.43, 28.64 14.7, 21.65 14.07 C14.66 13.44, 7.49 11.52, 4.01 10.15 C0.54 8.79, -0.96 7.33, 0.8 5.89 C2.57 4.45, 8.31 2.41, 14.62 1.51 C20.93 0.62, 34.48 0.75, 38.66 0.51 C42.84 0.28, 39.79 0.01, 39.72 0.09 M28.6 0.02 C35.51 -0.53, 45.64 -0.37, 52.31 0.45 C58.99 1.27, 65.89 3.32, 68.65 4.94 C71.4 6.57, 71.1 8.84, 68.84 10.19 C66.57 11.53, 61.46 12.41, 55.06 13 C48.65 13.58, 38.13 13.79, 30.41 13.7 C22.7 13.61, 13.94 13.52, 8.76 12.46 C3.58 11.4, -0.48 8.96, -0.67 7.33 C-0.86 5.71, 2.87 3.91, 7.61 2.71 C12.36 1.51, 24.22 0.63, 27.78 0.14 C31.34 -0.36, 28.87 -0.42, 28.97 -0.27" stroke="#000000" stroke-width="1" fill="none"></path></g><g stroke-linecap="round" transform="translate(832.2930920369032 478.48689220714857) rotate(0 11.072468018293307 12.874962811968942)"><path d="M12.14 0.68 L22.8 13.5 L11.91 25.67 L0.35 13.51" stroke="none" stroke-width="0" fill="#868e96" fill-rule="evenodd"></path><path d="M12 0 C14.91 3.05, 16.31 6.26, 22.14 13 M12 0 C14.59 2.77, 16.91 6.34, 22.14 13 M22.14 13 C19.8 16.02, 16.43 20.48, 12 25.75 M22.14 13 C18.97 17.87, 14.9 22.03, 12 25.75 M12 25.75 C8.47 21.53, 3.44 16.59, 0 13 M12 25.75 C8.74 23.08, 6.57 19.35, 0 13 M0 13 C4.14 8.39, 7.01 5.32, 12 0 M0 13 C3.86 8.82, 6.73 5.41, 12 0" stroke="#000000" stroke-width="1" fill="none"></path></g><g stroke-linecap="round" transform="translate(819.9331277374107 517.6267791555346) rotate(0 11.84496578701146 11.329967274532635)"><path d="M12.44 -0.11 C14.74 -0.21, 17.89 1.07, 19.75 2.86 C21.61 4.64, 23.24 8.12, 23.61 10.61 C23.99 13.09, 23.4 15.84, 21.99 17.78 C20.58 19.72, 17.69 21.63, 15.14 22.24 C12.6 22.86, 9.02 22.56, 6.71 21.48 C4.4 20.4, 2.38 17.88, 1.27 15.77 C0.17 13.66, -0.51 11.15, 0.08 8.8 C0.68 6.45, 2.61 3.14, 4.85 1.68 C7.09 0.22, 12.06 0.2, 13.52 0.04 C14.99 -0.12, 13.72 0.55, 13.63 0.72 M9.24 -0.44 C11.71 -1.23, 16.04 -0.45, 18.18 0.77 C20.33 1.99, 21.31 4.54, 22.11 6.88 C22.91 9.22, 23.72 12.42, 23 14.8 C22.27 17.19, 19.82 20.01, 17.74 21.21 C15.66 22.41, 13.09 22.51, 10.53 22 C7.97 21.5, 4.09 20.03, 2.36 18.19 C0.63 16.35, 0.07 13.33, 0.13 10.96 C0.19 8.58, 1.14 5.62, 2.72 3.94 C4.31 2.25, 8.64 1.5, 9.64 0.86 C10.65 0.22, 8.82 0.11, 8.77 0.08" stroke="none" stroke-width="0" fill="#868e96"></path><path d="M14.46 0.4 C16.83 0.69, 19.22 2.52, 20.79 4.38 C22.35 6.25, 23.84 9.13, 23.84 11.59 C23.84 14.06, 22.48 17.4, 20.79 19.18 C19.1 20.96, 16.27 21.93, 13.71 22.28 C11.14 22.62, 7.54 22.51, 5.4 21.28 C3.25 20.05, 1.57 17.19, 0.84 14.9 C0.11 12.62, 0.02 9.84, 1 7.56 C1.98 5.28, 4.42 2.38, 6.72 1.23 C9.02 0.07, 13.46 0.67, 14.81 0.63 C16.17 0.59, 14.82 0.82, 14.84 0.98 M11.3 0.41 C13.63 0.36, 16.35 1.71, 18.5 3.07 C20.64 4.42, 23.53 6.41, 24.16 8.55 C24.79 10.7, 23.64 13.65, 22.3 15.94 C20.96 18.22, 18.57 21.25, 16.12 22.27 C13.67 23.29, 9.98 22.87, 7.59 22.05 C5.21 21.24, 3.15 19.42, 1.8 17.39 C0.45 15.35, -0.92 12.33, -0.5 9.83 C-0.09 7.34, 2.43 4.02, 4.28 2.41 C6.14 0.81, 9.41 0.47, 10.61 0.2 C11.8 -0.08, 11.24 0.53, 11.45 0.75" stroke="#000000" stroke-width="1" fill="none"></path></g><g stroke-linecap="round"><g transform="translate(809.0762002512082 491.78842907437786) rotate(0 -0.27415016804786774 9.831037265621944)" fill-rule="evenodd"><path d="M-0.09 -0.08 L10.83 20.17 L-10.09 18.55 L-0.31 -0.95" stroke="none" stroke-width="0" fill="#868e96" fill-rule="evenodd"></path><path d="M0 0 C2.89 7.1, 7.25 13.36, 10.48 19.66 M0 0 C2.16 4.46, 4.87 8.85, 10.48 19.66 M10.48 19.66 C5.76 19.86, 0.23 20.6, -11.03 19.42 M10.48 19.66 C2.47 19.16, -5.8 19.85, -11.03 19.42 M-11.03 19.42 C-7.95 13.01, -3.23 5.92, 0 0 M-11.03 19.42 C-6.79 11.33, -2.55 4.36, 0 0 M0 0 C0 0, 0 0, 0 0 M0 0 C0 0, 0 0, 0 0" stroke="#000000" stroke-width="1" fill="none"></path></g></g><mask></mask><g transform="translate(814.5414850121819 553.2031634201672) rotate(0 11.2916259765625 11.827280109138599)"><text x="11.2916259765625" y="0" font-family="Virgil, Segoe UI Emoji" font-size="17.52189645798314px" fill="#000000" text-anchor="middle" style="white-space: pre;" direction="ltr" dominant-baseline="text-before-edge">S3</text></g><g mask="url(#mask-_X4nbMUIIEV67L5CesqBb)" stroke-linecap="round"><g transform="translate(216.5930399139769 514.414960563327) rotate(0 86.13052410572186 -1.5)"><path d="M0 0 C14.48 -0.3, 58.2 -1.31, 86.91 -1.81 C115.62 -2.31, 158.04 -2.8, 172.26 -3 M0 0 C14.48 -0.3, 58.2 -1.31, 86.91 -1.81 C115.62 -2.31, 158.04 -2.8, 172.26 -3" stroke="#1e1e1e" stroke-width="2" fill="none"></path></g><g transform="translate(216.5930399139769 514.414960563327) rotate(0 86.13052410572186 -1.5)"><path d="M144.21 7.63 C151.98 4.68, 159.75 1.74, 172.26 -3 M144.21 7.63 C151.78 4.76, 159.36 1.89, 172.26 -3" stroke="#1e1e1e" stroke-width="2" fill="none"></path></g><g transform="translate(216.5930399139769 514.414960563327) rotate(0 86.13052410572186 -1.5)"><path d="M143.94 -12.89 C151.78 -10.15, 159.63 -7.41, 172.26 -3 M143.94 -12.89 C151.59 -10.22, 159.23 -7.55, 172.26 -3" stroke="#1e1e1e" stroke-width="2" fill="none"></path></g></g><mask id="mask-_X4nbMUIIEV67L5CesqBb"><rect x="0" y="0" fill="#fff" width="488.8540881254206" height="617.414960563327"></rect><rect x="260.86977785886154" y="487.6061021881262" fill="#000" width="85.25991821289062" height="50" opacity="1"></rect></mask><g transform="translate(260.86977785886165 487.6061021881262) rotate(0 41.85378616083722 25.30885837520077)"><text x="42.62995910644531" y="0" font-family="Virgil, Segoe UI Emoji" font-size="20px" fill="#1e1e1e" text-anchor="middle" style="white-space: pre;" direction="ltr" dominant-baseline="text-before-edge">Workflow</text><text x="42.62995910644531" y="25" font-family="Virgil, Segoe UI Emoji" font-size="20px" fill="#1e1e1e" text-anchor="middle" style="white-space: pre;" direction="ltr" dominant-baseline="text-before-edge">Dispatch</text></g><g mask="url(#mask-5pX3pM-QkbFAR7RiXEpnT)" stroke-linecap="round"><g transform="translate(514.1664850121819 510.5135338940032) rotate(0 134.16668701171875 -0.8324715640616773)"><path d="M0 0 C44.72 -0.28, 223.61 -1.39, 268.33 -1.66 M0 0 C44.72 -0.28, 223.61 -1.39, 268.33 -1.66" stroke="#1e1e1e" stroke-width="2" fill="none"></path></g><g transform="translate(514.1664850121819 510.5135338940032) rotate(0 134.16668701171875 -0.8324715640616773)"><path d="M240.21 8.77 C250.75 4.86, 261.3 0.94, 268.33 -1.66 M240.21 8.77 C249.13 5.46, 258.04 2.15, 268.33 -1.66" stroke="#1e1e1e" stroke-width="2" fill="none"></path></g><g transform="translate(514.1664850121819 510.5135338940032) rotate(0 134.16668701171875 -0.8324715640616773)"><path d="M240.08 -11.75 C250.67 -7.97, 261.27 -4.19, 268.33 -1.66 M240.08 -11.75 C249.04 -8.55, 258 -5.35, 268.33 -1.66" stroke="#1e1e1e" stroke-width="2" fill="none"></path></g></g><mask id="mask-5pX3pM-QkbFAR7RiXEpnT"><rect x="0" y="0" fill="#fff" width="882.4998590356194" height="612.1784770221266"></rect><rect x="610.6331979638421" y="484.6810623299417" fill="#000" width="75.39994812011719" height="50" opacity="1"></rect></mask><g transform="translate(610.6331979638421 484.6810623299416) rotate(0 37.699974060058594 24.999999999999943)"><text x="37.699974060058594" y="0" font-family="Virgil, Segoe UI Emoji" font-size="20px" fill="#1e1e1e" text-anchor="middle" style="white-space: pre;" direction="ltr" dominant-baseline="text-before-edge">S3 sync</text><text x="37.699974060058594" y="25" font-family="Virgil, Segoe UI Emoji" font-size="20px" fill="#1e1e1e" text-anchor="middle" style="white-space: pre;" direction="ltr" dominant-baseline="text-before-edge">[REST]</text></g><g stroke-linecap="round"><g transform="translate(273.6496925051621 639.7836500941263) rotate(0 35.79351071797555 38.8735480581895)" fill-rule="evenodd"><path d="M0.19 -1.21 C-0.27 10.67, -1.47 59.15, -1.68 71.92 C-1.9 84.69, -2.21 73.67, -1.1 75.42 C0.02 77.17, 1.71 81.25, 5.01 82.41 C8.31 83.56, 13.57 81.85, 18.7 82.34 C23.83 82.83, 28.89 84.93, 35.8 85.37 C42.71 85.8, 54.24 85.92, 60.17 84.94 C66.09 83.95, 69.65 80.48, 71.37 79.47 C73.09 78.46, 70.67 80.63, 70.49 78.86 C70.32 77.08, 70.53 81.02, 70.33 68.8 C70.13 56.59, 69.56 17.34, 69.29 5.56 C69.02 -6.21, 68.9 -0.32, 68.71 -1.87 C68.53 -3.42, 70.57 -2.75, 68.19 -3.72 C65.8 -4.69, 60.04 -6.78, 54.4 -7.7 C48.76 -8.62, 40.41 -9.65, 34.34 -9.22 C28.28 -8.8, 22.9 -5.9, 18.02 -5.13 C13.14 -4.35, 7.88 -5.1, 5.05 -4.59 C2.23 -4.08, 2.09 -3.03, 1.07 -2.05 C0.05 -1.07, -0.74 0.93, -1.07 1.28" stroke="none" stroke-width="0" fill="#ced4da" fill-rule="evenodd"></path><path d="M-0.27 0.87 C0.09 12.56, 1.35 57.6, 1.3 70.57 C1.25 83.55, -1.06 76.92, -0.57 78.73 C-0.09 80.54, 1.2 80.39, 4.23 81.41 C7.26 82.43, 11.95 84.04, 17.59 84.84 C23.24 85.64, 31.03 86.37, 38.09 86.22 C45.16 86.07, 54.88 85.04, 60 83.94 C65.11 82.84, 66.91 80.53, 68.79 79.61 C70.67 78.68, 70.71 79.88, 71.27 78.38 C71.84 76.88, 72.11 82.78, 72.19 70.62 C72.28 58.46, 71.89 17.2, 71.77 5.43 C71.64 -6.35, 72.36 1.4, 71.45 -0.03 C70.53 -1.46, 68.79 -2.35, 66.28 -3.15 C63.77 -3.96, 61.51 -4.06, 56.39 -4.88 C51.26 -5.69, 42.23 -7.73, 35.54 -8.05 C28.85 -8.38, 21.62 -7.58, 16.24 -6.82 C10.86 -6.07, 5.76 -4.84, 3.25 -3.52 C0.73 -2.21, 1.73 0.5, 1.14 1.06 C0.55 1.61, -0.05 -0.2, -0.27 -0.19 M1.78 0.28 C2.16 11.59, 1.49 56.04, 0.92 68.8 C0.34 81.56, -2.29 74.55, -1.65 76.84 C-1.01 79.14, 1.7 81.12, 4.76 82.57 C7.82 84.02, 10.91 85.03, 16.69 85.56 C22.48 86.09, 32.66 86.22, 39.47 85.75 C46.28 85.28, 52.34 83.87, 57.57 82.73 C62.81 81.6, 68.26 79.81, 70.86 78.95 C73.47 78.08, 72.79 79.05, 73.19 77.57 C73.59 76.08, 73.42 81.93, 73.26 70.03 C73.1 58.13, 72.76 17.91, 72.25 6.18 C71.75 -5.55, 71.2 1.31, 70.23 -0.33 C69.26 -1.97, 68.87 -2.96, 66.42 -3.68 C63.96 -4.4, 60.5 -3.76, 55.48 -4.64 C50.46 -5.52, 42.74 -8.77, 36.31 -8.97 C29.88 -9.16, 22.58 -6.79, 16.88 -5.81 C11.17 -4.82, 4.82 -3.75, 2.09 -3.06 C-0.65 -2.36, 1.12 -2.16, 0.47 -1.66 C-0.18 -1.15, -1.76 -0.3, -1.8 -0.04" stroke="#000000" stroke-width="1" fill="none"></path></g></g><mask></mask><g stroke-linecap="round" transform="translate(273.80019755107526 632.5754798310984) rotate(0 35.602425041199126 7.2003226165410865)"><path d="M30.85 -0.42 C37.99 -0.57, 47.92 0.65, 54.37 1.47 C60.82 2.3, 67.25 3.14, 69.54 4.54 C71.83 5.94, 71.08 8.33, 68.1 9.88 C65.13 11.42, 58.35 13, 51.7 13.79 C45.05 14.59, 35.64 14.97, 28.19 14.64 C20.75 14.31, 11.82 13.14, 7.06 11.82 C2.3 10.49, -0.8 8.29, -0.38 6.68 C0.04 5.07, 4.1 3.19, 9.59 2.16 C15.07 1.13, 28.39 0.74, 32.52 0.47 C36.65 0.2, 34.34 0.53, 34.38 0.52 M30.14 0.76 C37.15 0.35, 46.75 0.21, 53.32 0.79 C59.89 1.38, 66.93 2.74, 69.56 4.26 C72.18 5.79, 71.86 8.43, 69.07 9.96 C66.27 11.49, 59.61 12.61, 52.79 13.44 C45.97 14.27, 35.59 15.32, 28.15 14.93 C20.72 14.54, 12.78 12.5, 8.19 11.11 C3.59 9.72, 0.49 7.96, 0.58 6.6 C0.68 5.23, 3.78 4.05, 8.76 2.9 C13.74 1.74, 27.01 0.07, 30.45 -0.35 C33.9 -0.77, 29.54 0.21, 29.45 0.37" stroke="none" stroke-width="0" fill="#fff"></path><path d="M31.31 0.51 C38.43 0.19, 48.79 0.29, 55.26 1.13 C61.72 1.98, 67.9 4.16, 70.11 5.57 C72.31 6.98, 71.58 8.24, 68.48 9.57 C65.38 10.9, 58.25 12.75, 51.51 13.56 C44.77 14.37, 35.45 14.77, 28.04 14.45 C20.63 14.14, 11.75 12.91, 7.06 11.66 C2.36 10.42, -0.57 8.55, -0.13 6.98 C0.3 5.4, 3.99 3.4, 9.67 2.21 C15.35 1.02, 29.49 0.13, 33.97 -0.15 C38.44 -0.44, 36.59 0.4, 36.54 0.5 M33.03 0.72 C40.16 0.53, 49.55 0.28, 55.68 1.16 C61.82 2.04, 67.73 4.45, 69.82 5.99 C71.92 7.53, 71.43 9.18, 68.27 10.41 C65.12 11.63, 57.94 12.61, 50.89 13.34 C43.85 14.07, 33.44 15.24, 26 14.78 C18.55 14.33, 10.46 11.92, 6.22 10.61 C1.97 9.31, -0.27 8.46, 0.52 6.95 C1.31 5.44, 5.78 2.71, 10.96 1.56 C16.13 0.42, 27.94 0.27, 31.57 0.11 C35.2 -0.06, 32.51 0.49, 32.76 0.56" stroke="#000000" stroke-width="1" fill="none"></path></g><g stroke-linecap="round" transform="translate(316.12660702472124 654.265893113858) rotate(0 11.072468018293307 12.874962811968942)"><path d="M11.63 0.64 L21.62 12.15 L11.12 25.63 L-0.96 12.35" stroke="none" stroke-width="0" fill="#868e96" fill-rule="evenodd"></path><path d="M12 0 C16.58 5.45, 20 10.88, 22.14 13 M12 0 C15.96 4.62, 18.77 8.9, 22.14 13 M22.14 13 C19.09 16.92, 16.04 20.65, 12 25.75 M22.14 13 C18.75 17.39, 15.92 20.96, 12 25.75 M12 25.75 C8.79 23.59, 7.13 19.51, 0 13 M12 25.75 C8.79 22.3, 5.23 18.35, 0 13 M0 13 C1.72 10.62, 5.66 8.06, 12 0 M0 13 C2.98 10.32, 5.7 7.05, 12 0" stroke="#000000" stroke-width="1" fill="none"></path></g><g stroke-linecap="round" transform="translate(303.76664272522873 693.405780062244) rotate(0 11.844965787011404 11.329967274532635)"><path d="M9.02 -0.16 C11.31 -0.92, 14.46 -0.09, 16.67 1.09 C18.88 2.28, 21.17 4.67, 22.31 6.97 C23.44 9.27, 24.17 12.57, 23.47 14.9 C22.77 17.23, 20.33 19.73, 18.1 20.97 C15.88 22.22, 12.58 22.71, 10.15 22.38 C7.73 22.04, 5.24 20.63, 3.55 18.99 C1.87 17.34, 0.21 14.85, 0.04 12.52 C-0.14 10.19, 0.99 7.11, 2.52 5.01 C4.06 2.9, 8.12 0.69, 9.26 -0.09 C10.4 -0.87, 9.27 0.07, 9.37 0.33 M14.78 -0.31 C17.31 0.13, 20.05 2.64, 21.53 4.67 C23 6.7, 23.89 9.34, 23.62 11.85 C23.35 14.35, 21.56 18.02, 19.89 19.7 C18.21 21.39, 15.89 21.84, 13.57 21.95 C11.26 22.06, 8.16 21.51, 5.99 20.37 C3.82 19.22, 1.31 17.4, 0.54 15.08 C-0.24 12.77, 0.46 8.77, 1.33 6.48 C2.2 4.2, 3.66 2.45, 5.73 1.38 C7.81 0.32, 12.29 0.29, 13.78 0.09 C15.28 -0.1, 14.69 0.12, 14.68 0.22" stroke="none" stroke-width="0" fill="#868e96"></path><path d="M14.96 0.76 C17.32 1.07, 20 2.21, 21.41 4.06 C22.82 5.91, 23.5 9.32, 23.42 11.86 C23.35 14.4, 22.67 17.48, 20.96 19.29 C19.26 21.1, 15.81 22.42, 13.18 22.7 C10.56 22.99, 7.31 22.35, 5.22 20.99 C3.12 19.64, 1.3 16.95, 0.62 14.57 C-0.05 12.2, 0.14 8.91, 1.17 6.75 C2.2 4.58, 4.54 2.69, 6.81 1.59 C9.07 0.48, 13.35 0.23, 14.77 0.11 C16.19 -0.01, 15.37 0.55, 15.33 0.87 M14.42 0.99 C16.88 1.43, 20.09 2.97, 21.64 4.74 C23.19 6.5, 24.02 9.09, 23.73 11.58 C23.44 14.07, 21.7 17.98, 19.9 19.69 C18.1 21.4, 15.28 21.59, 12.92 21.83 C10.57 22.07, 7.73 22.45, 5.77 21.16 C3.82 19.86, 2.11 16.41, 1.18 14.04 C0.26 11.68, -0.72 9.03, 0.23 6.95 C1.18 4.88, 4.43 2.76, 6.89 1.61 C9.35 0.46, 13.78 0.17, 15 0.07 C16.22 -0.03, 14.39 0.88, 14.2 1" stroke="#000000" stroke-width="1" fill="none"></path></g><g stroke-linecap="round"><g transform="translate(292.9097152390261 667.5674299810873) rotate(0 -0.2741501680478109 9.831037265621944)" fill-rule="evenodd"><path d="M-0.88 -0.12 L9.52 19.01 L-10.33 19.42 L-0.97 -0.82" stroke="none" stroke-width="0" fill="#868e96" fill-rule="evenodd"></path><path d="M0 0 C4.15 6.68, 8.16 14.47, 10.48 19.66 M0 0 C3.23 6.81, 6.9 12.58, 10.48 19.66 M10.48 19.66 C3.67 19.46, -3.08 19.21, -11.03 19.42 M10.48 19.66 C2.24 19.33, -5.3 19.2, -11.03 19.42 M-11.03 19.42 C-6.89 11.55, -1.41 4.39, 0 0 M-11.03 19.42 C-7.82 13.51, -4.05 6.25, 0 0 M0 0 C0 0, 0 0, 0 0 M0 0 C0 0, 0 0, 0 0" stroke="#000000" stroke-width="1" fill="none"></path></g></g><mask></mask><g transform="translate(298.4100418090819 728.9821643268767) rotate(0 11.256584167480469 11.827280109138655)"><text x="11.256584167480469" y="0" font-family="Virgil, Segoe UI Emoji" font-size="17.52189645798314px" fill="#000000" text-anchor="middle" style="white-space: pre;" direction="ltr" dominant-baseline="text-before-edge">git</text></g><g mask="url(#mask-5vGpPtjRT4t30bPug889i)" stroke-linecap="round"><g transform="translate(149.66668701171864 577.6061021881262) rotate(0 61.666656494140625 39.66668701171875)"><path d="M0 0 C2.44 7.89, -5.89 34.11, 14.67 47.33 C35.22 60.56, 105.22 74, 123.33 79.33 M0 0 C2.44 7.89, -5.89 34.11, 14.67 47.33 C35.22 60.56, 105.22 74, 123.33 79.33" stroke="#1e1e1e" stroke-width="2" fill="none"></path></g><g transform="translate(149.66668701171864 577.6061021881262) rotate(0 61.666656494140625 39.66668701171875)"><path d="M93.51 82.58 C104.44 81.39, 115.38 80.2, 123.33 79.33 M93.51 82.58 C100.84 81.78, 108.18 80.98, 123.33 79.33" stroke="#1e1e1e" stroke-width="2" fill="none"></path></g><g transform="translate(149.66668701171864 577.6061021881262) rotate(0 61.666656494140625 39.66668701171875)"><path d="M98.4 62.65 C107.54 68.77, 116.68 74.88, 123.33 79.33 M98.4 62.65 C104.53 66.75, 110.66 70.86, 123.33 79.33" stroke="#1e1e1e" stroke-width="2" fill="none"></path></g></g><mask id="mask-5vGpPtjRT4t30bPug889i"><rect x="0" y="0" fill="#fff" width="372.9999999999999" height="756.9394762115637"></rect><rect x="107.29343414306629" y="612.4394762115637" fill="#000" width="114.07987976074219" height="25" opacity="1"></rect></mask><g transform="translate(107.29343414306629 612.4394762115637) rotate(0 104.03990936279297 4.83331298828125)"><text x="57.039939880371094" y="0" font-family="Virgil, Segoe UI Emoji" font-size="20px" fill="#1e1e1e" text-anchor="middle" style="white-space: pre;" direction="ltr" dominant-baseline="text-before-edge">commit/push</text></g><g mask="url(#mask-drE6AuzStjpx2uvc7dAOz)" stroke-linecap="round"><g transform="translate(352.3333740234374 654.9393541412512) rotate(0 49.666656494140625 -37.333282470703125)"><path d="M0 0 C11.44 -4, 52.11 -11.56, 68.67 -24 C85.22 -36.44, 94.22 -66.22, 99.33 -74.67 M0 0 C11.44 -4, 52.11 -11.56, 68.67 -24 C85.22 -36.44, 94.22 -66.22, 99.33 -74.67" stroke="#1e1e1e" stroke-width="2" fill="none"></path></g><g transform="translate(352.3333740234374 654.9393541412512) rotate(0 49.666656494140625 -37.333282470703125)"><path d="M96.74 -45.17 C97.63 -55.28, 98.52 -65.39, 99.33 -74.67 M96.74 -45.17 C97.61 -55.1, 98.49 -65.03, 99.33 -74.67" stroke="#1e1e1e" stroke-width="2" fill="none"></path></g><g transform="translate(352.3333740234374 654.9393541412512) rotate(0 49.666656494140625 -37.333282470703125)"><path d="M78.39 -53.74 C85.57 -60.91, 92.75 -68.09, 99.33 -74.67 M78.39 -53.74 C85.44 -60.78, 92.49 -67.83, 99.33 -74.67" stroke="#1e1e1e" stroke-width="2" fill="none"></path></g></g><mask id="mask-drE6AuzStjpx2uvc7dAOz"><rect x="0" y="0" fill="#fff" width="551.6666870117186" height="829.6059190826575"></rect><rect x="395.0600891113281" y="618.4394762115637" fill="#000" width="51.87994384765625" height="25" opacity="1"></rect></mask><g transform="translate(395.0600891113281 618.4394762115637) rotate(0 6.93994140625 -0.833404541015625)"><text x="25.939971923828125" y="0" font-family="Virgil, Segoe UI Emoji" font-size="20px" fill="#1e1e1e" text-anchor="middle" style="white-space: pre;" direction="ltr" dominant-baseline="text-before-edge">fetch</text></g><g mask="url(#mask-8DILGJqZvID4FEe7jC8pS)" stroke-linecap="round"><g transform="translate(398.6667480468749 160.93947621156371) rotate(0 -108.33334350585938 148.33334350585938)"><path d="M0 0 C-19.56 21.11, -81.22 77.22, -117.33 126.67 C-153.44 176.11, -200.11 268.33, -216.67 296.67 M0 0 C-19.56 21.11, -81.22 77.22, -117.33 126.67 C-153.44 176.11, -200.11 268.33, -216.67 296.67" stroke="#1e1e1e" stroke-width="2" fill="none"></path></g><g transform="translate(398.6667480468749 160.93947621156371) rotate(0 -108.33334350585938 148.33334350585938)"><path d="M-212.07 267.02 C-213.41 275.64, -214.74 284.26, -216.67 296.67 M-212.07 267.02 C-213.39 275.51, -214.7 283.99, -216.67 296.67" stroke="#1e1e1e" stroke-width="2" fill="none"></path></g><g transform="translate(398.6667480468749 160.93947621156371) rotate(0 -108.33334350585938 148.33334350585938)"><path d="M-194.09 276.91 C-200.65 282.66, -207.22 288.4, -216.67 296.67 M-194.09 276.91 C-200.55 282.57, -207.01 288.22, -216.67 296.67" stroke="#1e1e1e" stroke-width="2" fill="none"></path></g></g><mask id="mask-8DILGJqZvID4FEe7jC8pS"><rect x="0" y="0" fill="#fff" width="715.3334350585936" height="557.6061632232825"></rect><rect x="245.1433334350586" y="262.6061021881262" fill="#000" width="72.37995910644531" height="50" opacity="1"></rect></mask><g transform="translate(245.1433334350586 262.6061021881262) rotate(0 45.19007110595703 46.666717529296875)"><text x="36.189979553222656" y="0" font-family="Virgil, Segoe UI Emoji" font-size="20px" fill="#1e1e1e" text-anchor="middle" style="white-space: pre;" direction="ltr" dominant-baseline="text-before-edge">Fetch</text><text x="36.189979553222656" y="25" font-family="Virgil, Segoe UI Emoji" font-size="20px" fill="#1e1e1e" text-anchor="middle" style="white-space: pre;" direction="ltr" dominant-baseline="text-before-edge">[IMAP]</text></g></svg>